<svg xmlns="http://www.w3.org/2000/svg" xmlns:xlink="http://www.w3.org/1999/xlink" width="500" zoomAndPan="magnify" viewBox="0 0 375 374.999991" height="500" preserveAspectRatio="xMidYMid meet" version="1.0"><defs><g/><clipPath id="7359625773"><path d="M 111.75 89.238281 L 263.25 89.238281 L 263.25 240.738281 L 111.75 240.738281 Z M 111.75 89.238281 " clip-rule="nonzero"/></clipPath><clipPath id="733274ef29"><path d="M 187.5 89.238281 C 145.664062 89.238281 111.75 123.152344 111.75 164.988281 C 111.75 206.824219 145.664062 240.738281 187.5 240.738281 C 229.335938 240.738281 263.25 206.824219 263.25 164.988281 C 263.25 123.152344 229.335938 89.238281 187.5 89.238281 " clip-rule="nonzero"/></clipPath></defs><g clip-path="url(#7359625773)"><g clip-path="url(#733274ef29)"><path fill="#3d3d3d" d="M 111.75 89.238281 L 263.25 89.238281 L 263.25 240.738281 L 111.75 240.738281 Z M 111.75 89.238281 " fill-opacity="1" fill-rule="nonzero"/></g></g><g fill="#ffffff" fill-opacity="1"><g transform="translate(176.682321, 177.926809)"><g><path d="M 4.296875 -20.546875 C 4.453125 -17.222656 5.320312 -14.207031 6.90625 -11.5 C 8.5 -8.789062 10.664062 -6.484375 13.40625 -4.578125 C 16.15625 -2.679688 19.390625 -1.210938 23.109375 -0.171875 C 26.828125 0.867188 30.890625 1.390625 35.296875 1.390625 C 39.785156 1.390625 43.832031 0.847656 47.4375 -0.234375 C 51.039062 -1.316406 54.117188 -2.863281 56.671875 -4.875 C 59.222656 -6.882812 61.195312 -9.320312 62.59375 -12.1875 C 63.988281 -15.050781 64.6875 -18.226562 64.6875 -21.71875 C 64.6875 -26.519531 63.484375 -30.445312 61.078125 -33.5 C 58.679688 -36.5625 55.679688 -39.117188 52.078125 -41.171875 C 48.484375 -43.222656 44.578125 -44.941406 40.359375 -46.328125 C 36.140625 -47.722656 32.226562 -49.191406 28.625 -50.734375 C 25.019531 -52.285156 22.019531 -54.066406 19.625 -56.078125 C 17.226562 -58.097656 16.03125 -60.769531 16.03125 -64.09375 C 16.03125 -65.957031 16.4375 -67.703125 17.25 -69.328125 C 18.0625 -70.953125 19.257812 -72.363281 20.84375 -73.5625 C 22.425781 -74.757812 24.378906 -75.726562 26.703125 -76.46875 C 29.023438 -77.207031 31.695312 -77.578125 34.71875 -77.578125 C 39.75 -77.578125 44.023438 -76.507812 47.546875 -74.375 C 51.078125 -72.25 53.148438 -68.898438 53.765625 -64.328125 L 61.65625 -64.328125 C 61.195312 -67.191406 60.15625 -69.765625 58.53125 -72.046875 C 56.90625 -74.335938 54.851562 -76.273438 52.375 -77.859375 C 49.894531 -79.453125 47.085938 -80.65625 43.953125 -81.46875 C 40.816406 -82.28125 37.546875 -82.6875 34.140625 -82.6875 C 30.578125 -82.6875 27.1875 -82.21875 23.96875 -81.28125 C 20.757812 -80.351562 17.9375 -79 15.5 -77.21875 C 13.0625 -75.4375 11.125 -73.191406 9.6875 -70.484375 C 8.257812 -67.773438 7.546875 -64.679688 7.546875 -61.203125 C 7.546875 -56.628906 8.707031 -52.945312 11.03125 -50.15625 C 13.351562 -47.375 16.273438 -45.050781 19.796875 -43.1875 C 23.316406 -41.332031 27.128906 -39.75 31.234375 -38.4375 C 35.335938 -37.125 39.148438 -35.632812 42.671875 -33.96875 C 46.191406 -32.300781 49.113281 -30.265625 51.4375 -27.859375 C 53.757812 -25.460938 54.921875 -22.253906 54.921875 -18.234375 C 54.921875 -13.203125 53.082031 -9.523438 49.40625 -7.203125 C 45.726562 -4.878906 40.832031 -3.71875 34.71875 -3.71875 C 29.84375 -3.71875 25.929688 -4.351562 22.984375 -5.625 C 20.046875 -6.90625 17.800781 -8.4375 16.25 -10.21875 C 14.707031 -12 13.664062 -13.835938 13.125 -15.734375 C 12.582031 -17.628906 12.269531 -19.234375 12.1875 -20.546875 Z M 4.296875 -20.546875 "/></g></g></g><g fill="#ffffff" fill-opacity="1"><g transform="translate(121.296639, 221.228674)"><g><path d="M 14.40625 0 L 44.5625 0 C 49.925781 0 54.445312 -0.695312 58.125 -2.09375 C 61.8125 -3.5 64.773438 -5.320312 67.015625 -7.5625 C 69.265625 -9.8125 70.890625 -12.351562 71.890625 -15.1875 C 72.890625 -18.03125 73.390625 -20.894531 73.390625 -23.78125 C 73.390625 -28.34375 72.40625 -31.984375 70.4375 -34.703125 C 68.476562 -37.429688 66.132812 -39.515625 63.40625 -40.953125 C 60.6875 -42.398438 57.882812 -43.363281 55 -43.84375 C 52.125 -44.320312 49.804688 -44.601562 48.046875 -44.6875 L 48.046875 -45.15625 C 50.847656 -45.15625 53.488281 -45.695312 55.96875 -46.78125 C 58.445312 -47.863281 60.628906 -49.265625 62.515625 -50.984375 C 64.398438 -52.703125 65.898438 -54.703125 67.015625 -56.984375 C 68.140625 -59.273438 68.703125 -61.703125 68.703125 -64.265625 C 68.703125 -66.503906 68.21875 -68.785156 67.25 -71.109375 C 66.289062 -73.429688 64.832031 -75.550781 62.875 -77.46875 C 60.914062 -79.394531 58.394531 -80.976562 55.3125 -82.21875 C 52.226562 -83.457031 48.601562 -84.078125 44.4375 -84.078125 L 14.40625 -84.078125 Z M 25.34375 -5.28125 L 25.34375 -42.03125 L 38.5625 -42.03125 C 42.476562 -42.03125 45.878906 -41.507812 48.765625 -40.46875 C 51.648438 -39.4375 54.03125 -38.035156 55.90625 -36.265625 C 57.789062 -34.503906 59.191406 -32.460938 60.109375 -30.140625 C 61.035156 -27.828125 61.5 -25.390625 61.5 -22.828125 C 61.5 -20.015625 61 -17.523438 60 -15.359375 C 59 -13.203125 57.65625 -11.363281 55.96875 -9.84375 C 54.289062 -8.320312 52.3125 -7.179688 50.03125 -6.421875 C 47.75 -5.660156 45.328125 -5.28125 42.765625 -5.28125 Z M 25.34375 -47.328125 L 25.34375 -78.796875 L 40 -78.796875 C 43.125 -78.796875 45.785156 -78.351562 47.984375 -77.46875 C 50.179688 -76.59375 51.976562 -75.429688 53.375 -73.984375 C 54.78125 -72.546875 55.800781 -70.90625 56.4375 -69.0625 C 57.082031 -67.21875 57.40625 -65.375 57.40625 -63.53125 C 57.40625 -61.207031 56.945312 -59.046875 56.03125 -57.046875 C 55.113281 -55.046875 53.832031 -53.320312 52.1875 -51.875 C 50.539062 -50.4375 48.65625 -49.316406 46.53125 -48.515625 C 44.414062 -47.722656 42.15625 -47.328125 39.75 -47.328125 Z M 25.34375 -47.328125 "/></g></g></g><g fill="#3d3d3d" fill-opacity="1"><g transform="translate(94.933624, 267.872766)"><g><path d="M 12.0625 -9.46875 C 14.28125 -8.738281 15.390625 -7.253906 15.390625 -5.015625 C 15.390625 -3.328125 14.890625 -2.066406 13.890625 -1.234375 C 12.890625 -0.410156 11.222656 0 8.890625 0 L 2.78125 0 L 2.78125 -18.625 L 8.890625 -18.625 C 11.003906 -18.625 12.492188 -18.21875 13.359375 -17.40625 C 14.222656 -16.601562 14.65625 -15.347656 14.65625 -13.640625 C 14.65625 -11.628906 13.789062 -10.238281 12.0625 -9.46875 Z M 4.671875 -10.171875 L 8.890625 -10.171875 C 10.171875 -10.171875 11.125 -10.453125 11.75 -11.015625 C 12.382812 -11.585938 12.703125 -12.460938 12.703125 -13.640625 C 12.703125 -14.835938 12.421875 -15.691406 11.859375 -16.203125 C 11.296875 -16.722656 10.304688 -16.984375 8.890625 -16.984375 L 4.671875 -16.984375 Z M 13.4375 -5.109375 C 13.4375 -6.285156 13.054688 -7.148438 12.296875 -7.703125 C 11.535156 -8.253906 10.398438 -8.53125 8.890625 -8.53125 L 4.671875 -8.53125 L 4.671875 -1.640625 L 8.890625 -1.640625 C 10.566406 -1.640625 11.742188 -1.914062 12.421875 -2.46875 C 13.097656 -3.019531 13.4375 -3.898438 13.4375 -5.109375 Z M 13.4375 -5.109375 "/></g></g></g><g fill="#3d3d3d" fill-opacity="1"><g transform="translate(112.110999, 267.872766)"><g><path d="M 8.65625 -8.15625 L 4.671875 -8.15625 L 4.671875 0 L 2.78125 0 L 2.78125 -18.625 L 9.0625 -18.625 C 12.945312 -18.625 14.890625 -16.875 14.890625 -13.375 C 14.890625 -11.925781 14.539062 -10.769531 13.84375 -9.90625 C 13.15625 -9.050781 12.101562 -8.507812 10.6875 -8.28125 L 15.828125 0 L 13.671875 0 Z M 4.671875 -9.859375 L 9.0625 -9.859375 C 11.65625 -9.859375 12.953125 -11.050781 12.953125 -13.4375 C 12.953125 -14.65625 12.628906 -15.539062 11.984375 -16.09375 C 11.335938 -16.65625 10.363281 -16.9375 9.0625 -16.9375 L 4.671875 -16.9375 Z M 4.671875 -9.859375 "/></g></g></g><g fill="#3d3d3d" fill-opacity="1"><g transform="translate(129.263803, 267.872766)"><g><path d="M 12.65625 -5.828125 L 4.796875 -5.828125 L 2.609375 0 L 0.640625 0 L 7.765625 -18.84375 L 9.6875 -18.84375 L 16.84375 0 L 14.875 0 Z M 12 -7.5625 L 8.71875 -16.25 L 5.453125 -7.5625 Z M 12 -7.5625 "/></g></g></g><g fill="#3d3d3d" fill-opacity="1"><g transform="translate(146.736069, 267.872766)"><g><path d="M 8.890625 -18.625 C 11.878906 -18.625 14.128906 -17.832031 15.640625 -16.25 C 17.160156 -14.675781 17.921875 -12.359375 17.921875 -9.296875 C 17.921875 -6.210938 17.164062 -3.890625 15.65625 -2.328125 C 14.144531 -0.773438 11.890625 0 8.890625 0 L 2.78125 0 L 2.78125 -18.625 Z M 8.890625 -1.703125 C 11.253906 -1.703125 13.03125 -2.3125 14.21875 -3.53125 C 15.40625 -4.757812 16 -6.703125 16 -9.359375 C 16 -11.953125 15.394531 -13.863281 14.1875 -15.09375 C 12.988281 -16.320312 11.222656 -16.9375 8.890625 -16.9375 L 4.671875 -16.9375 L 4.671875 -1.703125 Z M 8.890625 -1.703125 "/></g></g></g><g fill="#3d3d3d" fill-opacity="1"><g transform="translate(166.272575, 267.872766)"><g><path d="M 9.640625 -7.203125 L 9.640625 0 L 7.765625 0 L 7.765625 -7.203125 L 0.8125 -18.625 L 2.78125 -18.625 L 8.703125 -8.796875 L 14.65625 -18.625 L 16.609375 -18.625 Z M 9.640625 -7.203125 "/></g></g></g><g fill="#3d3d3d" fill-opacity="1"><g transform="translate(183.671118, 267.872766)"><g/></g></g><g fill="#3d3d3d" fill-opacity="1"><g transform="translate(189.077444, 267.872766)"><g><path d="M 7.8125 0.421875 C 5.488281 0.421875 3.410156 -0.0195312 1.578125 -0.90625 L 1.578125 -2.703125 C 3.390625 -1.753906 5.46875 -1.28125 7.8125 -1.28125 C 9.269531 -1.28125 10.335938 -1.585938 11.015625 -2.203125 C 11.703125 -2.828125 12.050781 -3.65625 12.0625 -4.6875 C 12.0625 -5.65625 11.742188 -6.390625 11.109375 -6.890625 C 10.472656 -7.390625 9.582031 -7.804688 8.4375 -8.140625 L 6.765625 -8.609375 C 5.828125 -8.878906 5.023438 -9.191406 4.359375 -9.546875 C 3.703125 -9.898438 3.15625 -10.414062 2.71875 -11.09375 C 2.28125 -11.769531 2.0625 -12.644531 2.0625 -13.71875 C 2.0625 -15.4375 2.554688 -16.738281 3.546875 -17.625 C 4.535156 -18.519531 5.929688 -18.96875 7.734375 -18.96875 C 8.804688 -18.96875 9.75 -18.867188 10.5625 -18.671875 C 11.382812 -18.484375 12.222656 -18.179688 13.078125 -17.765625 L 13.078125 -16 C 11.421875 -16.851562 9.640625 -17.28125 7.734375 -17.28125 C 6.460938 -17.28125 5.519531 -16.960938 4.90625 -16.328125 C 4.289062 -15.703125 3.984375 -14.847656 3.984375 -13.765625 C 3.992188 -12.773438 4.289062 -12.039062 4.875 -11.5625 C 5.457031 -11.082031 6.320312 -10.6875 7.46875 -10.375 L 9.171875 -9.90625 C 10.148438 -9.644531 10.984375 -9.320312 11.671875 -8.9375 C 12.359375 -8.5625 12.914062 -8.035156 13.34375 -7.359375 C 13.769531 -6.679688 13.984375 -5.800781 13.984375 -4.71875 C 13.960938 -3.125 13.40625 -1.867188 12.3125 -0.953125 C 11.226562 -0.0351562 9.726562 0.421875 7.8125 0.421875 Z M 7.8125 0.421875 "/></g></g></g><g fill="#3d3d3d" fill-opacity="1"><g transform="translate(204.70665, 267.872766)"><g><path d="M 14.359375 -16.890625 L 8.609375 -16.890625 L 8.609375 0 L 6.734375 0 L 6.734375 -16.890625 L 0.984375 -16.890625 L 0.984375 -18.625 L 14.359375 -18.625 Z M 14.359375 -16.890625 "/></g></g></g><g fill="#3d3d3d" fill-opacity="1"><g transform="translate(220.040965, 267.872766)"><g><path d="M 13.953125 -1.703125 L 13.953125 0 L 2.78125 0 L 2.78125 -18.625 L 13.84375 -18.625 L 13.84375 -16.9375 L 4.671875 -16.9375 L 4.671875 -10.21875 L 12.609375 -10.21875 L 12.609375 -8.53125 L 4.671875 -8.53125 L 4.671875 -1.703125 Z M 13.953125 -1.703125 "/></g></g></g><g fill="#3d3d3d" fill-opacity="1"><g transform="translate(235.473574, 267.872766)"><g><path d="M 13.953125 -1.703125 L 13.953125 0 L 2.78125 0 L 2.78125 -18.625 L 13.84375 -18.625 L 13.84375 -16.9375 L 4.671875 -16.9375 L 4.671875 -10.21875 L 12.609375 -10.21875 L 12.609375 -8.53125 L 4.671875 -8.53125 L 4.671875 -1.703125 Z M 13.953125 -1.703125 "/></g></g></g><g fill="#3d3d3d" fill-opacity="1"><g transform="translate(250.906183, 267.872766)"><g><path d="M 12.734375 -1.75 L 12.734375 0 L 2.78125 0 L 2.78125 -18.625 L 4.671875 -18.625 L 4.671875 -1.75 Z M 12.734375 -1.75 "/></g></g></g><g fill="#3d3d3d" fill-opacity="1"><g transform="translate(264.618595, 267.872766)"><g><path d="M 13.953125 -1.703125 L 13.953125 0 L 2.78125 0 L 2.78125 -18.625 L 13.84375 -18.625 L 13.84375 -16.9375 L 4.671875 -16.9375 L 4.671875 -10.21875 L 12.609375 -10.21875 L 12.609375 -8.53125 L 4.671875 -8.53125 L 4.671875 -1.703125 Z M 13.953125 -1.703125 "/></g></g></g><g fill="#3d3d3d" fill-opacity="1"><g transform="translate(148.247265, 286.101953)"><g><path d="M 4.78125 -1.875 C 4.78125 -1.519531 4.707031 -1.21875 4.5625 -0.96875 C 4.425781 -0.71875 4.242188 -0.515625 4.015625 -0.359375 C 3.796875 -0.203125 3.546875 -0.0859375 3.265625 -0.015625 C 2.984375 0.046875 2.707031 0.078125 2.4375 0.078125 C 2.15625 0.078125 1.910156 0.0507812 1.703125 0 C 1.492188 -0.0507812 1.304688 -0.101562 1.140625 -0.15625 C 1.023438 -0.195312 0.921875 -0.226562 0.828125 -0.25 C 0.734375 -0.269531 0.640625 -0.28125 0.546875 -0.28125 L 0.546875 -1.5 L 0.65625 -1.5 C 0.65625 -1.226562 0.722656 -1.007812 0.859375 -0.84375 C 1.003906 -0.6875 1.164062 -0.566406 1.34375 -0.484375 C 1.53125 -0.398438 1.710938 -0.34375 1.890625 -0.3125 C 2.078125 -0.289062 2.21875 -0.28125 2.3125 -0.28125 C 2.613281 -0.28125 2.875 -0.320312 3.09375 -0.40625 C 3.3125 -0.5 3.488281 -0.617188 3.625 -0.765625 C 3.769531 -0.910156 3.875 -1.070312 3.9375 -1.25 C 4.007812 -1.425781 4.046875 -1.609375 4.046875 -1.796875 C 4.046875 -2.023438 3.992188 -2.21875 3.890625 -2.375 C 3.796875 -2.539062 3.664062 -2.679688 3.5 -2.796875 C 3.34375 -2.921875 3.160156 -3.023438 2.953125 -3.109375 C 2.753906 -3.191406 2.550781 -3.28125 2.34375 -3.375 C 2.09375 -3.457031 1.851562 -3.546875 1.625 -3.640625 C 1.394531 -3.742188 1.1875 -3.867188 1 -4.015625 C 0.8125 -4.160156 0.660156 -4.332031 0.546875 -4.53125 C 0.429688 -4.738281 0.375 -4.992188 0.375 -5.296875 C 0.375 -5.609375 0.4375 -5.878906 0.5625 -6.109375 C 0.6875 -6.335938 0.847656 -6.523438 1.046875 -6.671875 C 1.242188 -6.816406 1.472656 -6.925781 1.734375 -7 C 1.992188 -7.082031 2.257812 -7.125 2.53125 -7.125 C 2.71875 -7.125 2.890625 -7.109375 3.046875 -7.078125 C 3.210938 -7.054688 3.367188 -7.023438 3.515625 -6.984375 C 3.640625 -6.960938 3.753906 -6.941406 3.859375 -6.921875 C 3.972656 -6.898438 4.085938 -6.890625 4.203125 -6.890625 L 4.203125 -5.796875 L 4.09375 -5.796875 C 4.070312 -6.171875 3.921875 -6.421875 3.640625 -6.546875 C 3.367188 -6.679688 2.988281 -6.75 2.5 -6.75 C 2.21875 -6.75 1.988281 -6.695312 1.8125 -6.59375 C 1.632812 -6.5 1.488281 -6.382812 1.375 -6.25 C 1.269531 -6.113281 1.195312 -5.960938 1.15625 -5.796875 C 1.125 -5.640625 1.109375 -5.503906 1.109375 -5.390625 C 1.109375 -5.191406 1.148438 -5.019531 1.234375 -4.875 C 1.328125 -4.738281 1.445312 -4.613281 1.59375 -4.5 C 1.738281 -4.394531 1.910156 -4.300781 2.109375 -4.21875 C 2.304688 -4.132812 2.507812 -4.050781 2.71875 -3.96875 C 2.957031 -3.875 3.203125 -3.773438 3.453125 -3.671875 C 3.703125 -3.566406 3.921875 -3.4375 4.109375 -3.28125 C 4.304688 -3.125 4.46875 -2.929688 4.59375 -2.703125 C 4.71875 -2.484375 4.78125 -2.207031 4.78125 -1.875 Z M 4.78125 -1.875 "/></g></g></g><g fill="#3d3d3d" fill-opacity="1"><g transform="translate(153.449726, 286.101953)"><g><path d="M 2.703125 0.078125 C 2.347656 0.078125 2.03125 0.0195312 1.75 -0.09375 C 1.46875 -0.21875 1.222656 -0.378906 1.015625 -0.578125 C 0.816406 -0.773438 0.660156 -1.007812 0.546875 -1.28125 C 0.441406 -1.5625 0.390625 -1.867188 0.390625 -2.203125 C 0.390625 -2.546875 0.445312 -2.859375 0.5625 -3.140625 C 0.6875 -3.429688 0.851562 -3.679688 1.0625 -3.890625 C 1.28125 -4.097656 1.535156 -4.253906 1.828125 -4.359375 C 2.117188 -4.472656 2.429688 -4.53125 2.765625 -4.53125 C 3.109375 -4.53125 3.421875 -4.472656 3.703125 -4.359375 C 3.992188 -4.253906 4.238281 -4.101562 4.4375 -3.90625 C 4.644531 -3.707031 4.804688 -3.472656 4.921875 -3.203125 C 5.035156 -2.929688 5.09375 -2.632812 5.09375 -2.3125 C 5.09375 -2 5.039062 -1.695312 4.9375 -1.40625 C 4.832031 -1.125 4.675781 -0.875 4.46875 -0.65625 C 4.269531 -0.4375 4.023438 -0.257812 3.734375 -0.125 C 3.441406 0.0078125 3.097656 0.078125 2.703125 0.078125 Z M 2.640625 -4.1875 C 2.390625 -4.175781 2.164062 -4.113281 1.96875 -4 C 1.769531 -3.882812 1.601562 -3.738281 1.46875 -3.5625 C 1.34375 -3.394531 1.242188 -3.203125 1.171875 -2.984375 C 1.109375 -2.765625 1.078125 -2.539062 1.078125 -2.3125 C 1.078125 -2.050781 1.117188 -1.796875 1.203125 -1.546875 C 1.285156 -1.304688 1.398438 -1.085938 1.546875 -0.890625 C 1.703125 -0.703125 1.882812 -0.550781 2.09375 -0.4375 C 2.3125 -0.332031 2.550781 -0.28125 2.8125 -0.28125 C 3.070312 -0.28125 3.300781 -0.332031 3.5 -0.4375 C 3.707031 -0.550781 3.878906 -0.695312 4.015625 -0.875 C 4.148438 -1.0625 4.25 -1.269531 4.3125 -1.5 C 4.382812 -1.726562 4.421875 -1.953125 4.421875 -2.171875 C 4.421875 -2.410156 4.382812 -2.644531 4.3125 -2.875 C 4.238281 -3.113281 4.128906 -3.332031 3.984375 -3.53125 C 3.835938 -3.726562 3.648438 -3.882812 3.421875 -4 C 3.203125 -4.125 2.941406 -4.1875 2.640625 -4.1875 Z M 2.640625 -4.1875 "/></g></g></g><g fill="#3d3d3d" fill-opacity="1"><g transform="translate(159.002548, 286.101953)"><g><path d="M 1.46875 -4.09375 L 1.46875 -0.6875 C 1.46875 -0.632812 1.472656 -0.570312 1.484375 -0.5 C 1.503906 -0.4375 1.53125 -0.375 1.5625 -0.3125 C 1.59375 -0.257812 1.625 -0.210938 1.65625 -0.171875 C 1.695312 -0.128906 1.75 -0.109375 1.8125 -0.109375 L 1.8125 0 L 0.421875 0 L 0.421875 -0.109375 C 0.472656 -0.109375 0.519531 -0.128906 0.5625 -0.171875 C 0.601562 -0.210938 0.640625 -0.257812 0.671875 -0.3125 C 0.703125 -0.375 0.722656 -0.4375 0.734375 -0.5 C 0.753906 -0.570312 0.765625 -0.632812 0.765625 -0.6875 L 0.765625 -4.09375 L 0.234375 -4.09375 L 0.234375 -4.46875 L 0.765625 -4.46875 L 0.765625 -5.328125 C 0.765625 -5.546875 0.769531 -5.753906 0.78125 -5.953125 C 0.800781 -6.160156 0.84375 -6.34375 0.90625 -6.5 C 0.976562 -6.664062 1.085938 -6.800781 1.234375 -6.90625 C 1.378906 -7.007812 1.582031 -7.0625 1.84375 -7.0625 C 1.976562 -7.0625 2.097656 -7.039062 2.203125 -7 C 2.304688 -6.96875 2.394531 -6.929688 2.46875 -6.890625 C 2.539062 -6.859375 2.601562 -6.828125 2.65625 -6.796875 C 2.707031 -6.765625 2.75 -6.75 2.78125 -6.75 L 2.78125 -5.96875 L 2.6875 -5.96875 C 2.65625 -6.175781 2.5625 -6.347656 2.40625 -6.484375 C 2.257812 -6.617188 2.113281 -6.6875 1.96875 -6.6875 C 1.757812 -6.6875 1.625 -6.578125 1.5625 -6.359375 C 1.5 -6.148438 1.46875 -5.851562 1.46875 -5.46875 L 1.46875 -4.46875 L 2.671875 -4.46875 L 2.671875 -4.09375 Z M 1.46875 -4.09375 "/></g></g></g><g fill="#3d3d3d" fill-opacity="1"><g transform="translate(161.975379, 286.101953)"><g><path d="M 1.515625 -4.09375 L 1.515625 -1.546875 C 1.515625 -1.359375 1.519531 -1.1875 1.53125 -1.03125 C 1.539062 -0.882812 1.554688 -0.757812 1.578125 -0.65625 C 1.609375 -0.5625 1.648438 -0.488281 1.703125 -0.4375 C 1.765625 -0.382812 1.84375 -0.359375 1.9375 -0.359375 C 2.09375 -0.359375 2.234375 -0.425781 2.359375 -0.5625 C 2.492188 -0.707031 2.578125 -0.878906 2.609375 -1.078125 L 2.703125 -1.078125 L 2.703125 -0.3125 C 2.640625 -0.3125 2.585938 -0.289062 2.546875 -0.25 C 2.492188 -0.195312 2.414062 -0.140625 2.3125 -0.078125 C 2.207031 -0.0234375 2.050781 0 1.84375 0 C 1.59375 0 1.394531 -0.046875 1.25 -0.140625 C 1.113281 -0.242188 1.007812 -0.375 0.9375 -0.53125 C 0.875 -0.695312 0.835938 -0.878906 0.828125 -1.078125 C 0.816406 -1.273438 0.8125 -1.476562 0.8125 -1.6875 L 0.8125 -4.09375 L 0.21875 -4.09375 L 0.21875 -4.46875 L 0.8125 -4.46875 L 0.8125 -5.40625 C 0.8125 -5.53125 0.796875 -5.640625 0.765625 -5.734375 C 0.734375 -5.835938 0.628906 -5.894531 0.453125 -5.90625 L 0.453125 -6.015625 L 1.515625 -6.359375 L 1.515625 -4.46875 L 2.703125 -4.46875 L 2.703125 -4.09375 Z M 1.515625 -4.09375 "/></g></g></g><g fill="#3d3d3d" fill-opacity="1"><g transform="translate(165.0013, 286.101953)"><g><path d="M 6.984375 -4.359375 C 6.859375 -4.359375 6.757812 -4.320312 6.6875 -4.25 C 6.625 -4.175781 6.566406 -4.070312 6.515625 -3.9375 L 4.90625 0.078125 L 3.53125 -3.265625 L 2.171875 0.078125 L 0.609375 -3.8125 C 0.554688 -3.9375 0.492188 -4.054688 0.421875 -4.171875 C 0.347656 -4.296875 0.25 -4.359375 0.125 -4.359375 L 0.125 -4.46875 L 1.578125 -4.46875 L 1.578125 -4.359375 C 1.535156 -4.359375 1.472656 -4.332031 1.390625 -4.28125 C 1.316406 -4.238281 1.28125 -4.164062 1.28125 -4.0625 C 1.28125 -4.039062 1.285156 -4.007812 1.296875 -3.96875 C 1.304688 -3.925781 1.320312 -3.882812 1.34375 -3.84375 L 2.375 -1.28125 L 3.71875 -4.578125 L 5.0625 -1.28125 L 6.125 -3.890625 C 6.15625 -3.992188 6.171875 -4.066406 6.171875 -4.109375 C 6.171875 -4.171875 6.148438 -4.222656 6.109375 -4.265625 C 6.078125 -4.316406 6.019531 -4.347656 5.9375 -4.359375 L 5.9375 -4.46875 L 6.984375 -4.46875 Z M 6.984375 -4.359375 "/></g></g></g><g fill="#3d3d3d" fill-opacity="1"><g transform="translate(172.157336, 286.101953)"><g><path d="M 3.28125 0 L 3.28125 -0.546875 L 3.234375 -0.484375 C 3.054688 -0.304688 2.851562 -0.164062 2.625 -0.0625 C 2.394531 0.03125 2.113281 0.078125 1.78125 0.078125 C 1.53125 0.078125 1.316406 0.0507812 1.140625 0 C 0.960938 -0.0625 0.816406 -0.144531 0.703125 -0.25 C 0.597656 -0.351562 0.515625 -0.472656 0.453125 -0.609375 C 0.398438 -0.742188 0.375 -0.882812 0.375 -1.03125 C 0.375 -1.269531 0.441406 -1.476562 0.578125 -1.65625 C 0.710938 -1.84375 0.898438 -2.007812 1.140625 -2.15625 C 1.390625 -2.300781 1.691406 -2.429688 2.046875 -2.546875 C 2.410156 -2.660156 2.820312 -2.773438 3.28125 -2.890625 C 3.269531 -3.160156 3.210938 -3.378906 3.109375 -3.546875 C 3.015625 -3.722656 2.898438 -3.859375 2.765625 -3.953125 C 2.628906 -4.046875 2.484375 -4.109375 2.328125 -4.140625 C 2.179688 -4.179688 2.054688 -4.203125 1.953125 -4.203125 C 1.765625 -4.203125 1.601562 -4.171875 1.46875 -4.109375 C 1.332031 -4.054688 1.210938 -3.984375 1.109375 -3.890625 C 1.003906 -3.804688 0.914062 -3.710938 0.84375 -3.609375 C 0.78125 -3.503906 0.726562 -3.40625 0.6875 -3.3125 L 0.578125 -3.3125 L 0.578125 -4.09375 C 0.640625 -4.09375 0.691406 -4.109375 0.734375 -4.140625 C 0.785156 -4.171875 0.847656 -4.203125 0.921875 -4.234375 C 1.023438 -4.273438 1.171875 -4.332031 1.359375 -4.40625 C 1.546875 -4.488281 1.804688 -4.53125 2.140625 -4.53125 C 2.523438 -4.53125 2.835938 -4.476562 3.078125 -4.375 C 3.316406 -4.28125 3.5 -4.148438 3.625 -3.984375 C 3.757812 -3.828125 3.847656 -3.644531 3.890625 -3.4375 C 3.941406 -3.226562 3.96875 -3.015625 3.96875 -2.796875 L 3.96875 -0.6875 C 3.96875 -0.550781 4 -0.421875 4.0625 -0.296875 C 4.125 -0.171875 4.207031 -0.109375 4.3125 -0.109375 L 4.3125 0 Z M 3.28125 -1.015625 L 3.28125 -2.53125 L 3.171875 -2.5 C 3.003906 -2.457031 2.796875 -2.398438 2.546875 -2.328125 C 2.304688 -2.265625 2.078125 -2.175781 1.859375 -2.0625 C 1.640625 -1.945312 1.453125 -1.8125 1.296875 -1.65625 C 1.140625 -1.5 1.0625 -1.316406 1.0625 -1.109375 C 1.0625 -0.890625 1.148438 -0.703125 1.328125 -0.546875 C 1.515625 -0.398438 1.757812 -0.328125 2.0625 -0.328125 C 2.289062 -0.328125 2.492188 -0.378906 2.671875 -0.484375 C 2.847656 -0.585938 3.015625 -0.71875 3.171875 -0.875 Z M 3.28125 -1.015625 "/></g></g></g><g fill="#3d3d3d" fill-opacity="1"><g transform="translate(177.009424, 286.101953)"><g><path d="M 3.078125 -3.6875 C 2.984375 -3.832031 2.890625 -3.921875 2.796875 -3.953125 C 2.710938 -3.984375 2.609375 -4 2.484375 -4 C 2.410156 -4 2.328125 -3.984375 2.234375 -3.953125 C 2.148438 -3.921875 2.0625 -3.875 1.96875 -3.8125 C 1.882812 -3.757812 1.800781 -3.695312 1.71875 -3.625 C 1.644531 -3.5625 1.578125 -3.5 1.515625 -3.4375 L 1.515625 -0.6875 C 1.515625 -0.625 1.519531 -0.5625 1.53125 -0.5 C 1.550781 -0.4375 1.578125 -0.375 1.609375 -0.3125 C 1.640625 -0.25 1.675781 -0.195312 1.71875 -0.15625 C 1.757812 -0.125 1.804688 -0.109375 1.859375 -0.109375 L 1.859375 0 L 0.484375 0 L 0.484375 -0.109375 C 0.523438 -0.109375 0.566406 -0.125 0.609375 -0.15625 C 0.660156 -0.195312 0.703125 -0.25 0.734375 -0.3125 C 0.765625 -0.375 0.785156 -0.4375 0.796875 -0.5 C 0.804688 -0.5625 0.8125 -0.625 0.8125 -0.6875 L 0.8125 -3.640625 C 0.8125 -3.742188 0.78125 -3.84375 0.71875 -3.9375 C 0.65625 -4.039062 0.566406 -4.109375 0.453125 -4.140625 L 0.453125 -4.21875 L 1.515625 -4.53125 L 1.515625 -3.90625 C 1.578125 -3.976562 1.644531 -4.050781 1.71875 -4.125 C 1.789062 -4.195312 1.867188 -4.265625 1.953125 -4.328125 C 2.046875 -4.390625 2.144531 -4.4375 2.25 -4.46875 C 2.351562 -4.507812 2.476562 -4.53125 2.625 -4.53125 C 2.71875 -4.53125 2.84375 -4.507812 3 -4.46875 C 3.15625 -4.425781 3.285156 -4.378906 3.390625 -4.328125 Z M 3.078125 -3.6875 "/></g></g></g><g fill="#3d3d3d" fill-opacity="1"><g transform="translate(180.587442, 286.101953)"><g><path d="M 1.0625 -2.140625 C 1.09375 -1.898438 1.148438 -1.664062 1.234375 -1.4375 C 1.328125 -1.21875 1.453125 -1.019531 1.609375 -0.84375 C 1.765625 -0.675781 1.953125 -0.539062 2.171875 -0.4375 C 2.390625 -0.332031 2.644531 -0.28125 2.9375 -0.28125 C 3.09375 -0.28125 3.253906 -0.300781 3.421875 -0.34375 C 3.597656 -0.394531 3.757812 -0.460938 3.90625 -0.546875 C 4.0625 -0.640625 4.195312 -0.742188 4.3125 -0.859375 C 4.425781 -0.984375 4.503906 -1.125 4.546875 -1.28125 L 4.640625 -1.28125 L 4.640625 -0.484375 C 4.597656 -0.484375 4.550781 -0.46875 4.5 -0.4375 C 4.445312 -0.414062 4.382812 -0.382812 4.3125 -0.34375 C 4.164062 -0.257812 3.972656 -0.164062 3.734375 -0.0625 C 3.492188 0.03125 3.175781 0.078125 2.78125 0.078125 C 2.46875 0.078125 2.164062 0.03125 1.875 -0.0625 C 1.582031 -0.15625 1.328125 -0.296875 1.109375 -0.484375 C 0.890625 -0.679688 0.710938 -0.925781 0.578125 -1.21875 C 0.453125 -1.519531 0.390625 -1.875 0.390625 -2.28125 C 0.390625 -2.539062 0.429688 -2.804688 0.515625 -3.078125 C 0.609375 -3.347656 0.742188 -3.59375 0.921875 -3.8125 C 1.109375 -4.03125 1.34375 -4.203125 1.625 -4.328125 C 1.90625 -4.460938 2.242188 -4.53125 2.640625 -4.53125 C 2.992188 -4.53125 3.300781 -4.46875 3.5625 -4.34375 C 3.832031 -4.226562 4.054688 -4.0625 4.234375 -3.84375 C 4.410156 -3.632812 4.539062 -3.382812 4.625 -3.09375 C 4.707031 -2.8125 4.75 -2.492188 4.75 -2.140625 Z M 2.609375 -4.1875 C 2.359375 -4.1875 2.140625 -4.132812 1.953125 -4.03125 C 1.773438 -3.9375 1.625 -3.8125 1.5 -3.65625 C 1.375 -3.5 1.273438 -3.320312 1.203125 -3.125 C 1.128906 -2.925781 1.082031 -2.726562 1.0625 -2.53125 L 4.09375 -2.53125 C 4.082031 -2.738281 4.039062 -2.941406 3.96875 -3.140625 C 3.90625 -3.335938 3.8125 -3.515625 3.6875 -3.671875 C 3.570312 -3.828125 3.421875 -3.953125 3.234375 -4.046875 C 3.054688 -4.140625 2.847656 -4.1875 2.609375 -4.1875 Z M 2.609375 -4.1875 "/></g></g></g><g fill="#3d3d3d" fill-opacity="1"><g transform="translate(185.736814, 286.101953)"><g/></g></g><g fill="#3d3d3d" fill-opacity="1"><g transform="translate(188.4973, 286.101953)"><g><path d="M 0.484375 -0.109375 L 0.53125 -0.109375 C 0.582031 -0.109375 0.628906 -0.125 0.671875 -0.15625 C 0.722656 -0.195312 0.765625 -0.242188 0.796875 -0.296875 C 0.828125 -0.359375 0.847656 -0.421875 0.859375 -0.484375 C 0.878906 -0.546875 0.890625 -0.609375 0.890625 -0.671875 L 0.890625 -6.359375 C 0.890625 -6.398438 0.878906 -6.453125 0.859375 -6.515625 C 0.847656 -6.585938 0.828125 -6.648438 0.796875 -6.703125 C 0.765625 -6.765625 0.722656 -6.8125 0.671875 -6.84375 C 0.628906 -6.882812 0.582031 -6.90625 0.53125 -6.90625 L 0.484375 -6.90625 L 0.484375 -7.015625 L 4.5625 -7.015625 L 4.5625 -6.03125 L 4.46875 -6.03125 C 4.445312 -6.1875 4.378906 -6.328125 4.265625 -6.453125 C 4.148438 -6.578125 3.972656 -6.640625 3.734375 -6.640625 L 1.609375 -6.640625 L 1.609375 -3.953125 L 3.375 -3.953125 C 3.53125 -3.953125 3.660156 -4 3.765625 -4.09375 C 3.878906 -4.195312 3.9375 -4.316406 3.9375 -4.453125 L 4.046875 -4.453125 L 4.046875 -3.125 L 3.9375 -3.125 C 3.9375 -3.25 3.882812 -3.359375 3.78125 -3.453125 C 3.675781 -3.546875 3.539062 -3.59375 3.375 -3.59375 L 1.609375 -3.59375 L 1.609375 -0.375 L 3.9375 -0.375 C 4.070312 -0.375 4.1875 -0.40625 4.28125 -0.46875 C 4.382812 -0.53125 4.46875 -0.601562 4.53125 -0.6875 C 4.59375 -0.78125 4.640625 -0.878906 4.671875 -0.984375 C 4.710938 -1.085938 4.734375 -1.175781 4.734375 -1.25 L 4.828125 -1.25 L 4.828125 0 L 0.484375 0 Z M 0.484375 -0.109375 "/></g></g></g><g fill="#3d3d3d" fill-opacity="1"><g transform="translate(193.646672, 286.101953)"><g><path d="M 4.75 -0.6875 C 4.75 -0.632812 4.753906 -0.570312 4.765625 -0.5 C 4.785156 -0.4375 4.8125 -0.375 4.84375 -0.3125 C 4.875 -0.257812 4.90625 -0.210938 4.9375 -0.171875 C 4.976562 -0.128906 5.03125 -0.109375 5.09375 -0.109375 L 5.09375 0 L 3.71875 0 L 3.71875 -0.109375 C 3.769531 -0.109375 3.816406 -0.128906 3.859375 -0.171875 C 3.898438 -0.210938 3.9375 -0.257812 3.96875 -0.3125 C 4 -0.375 4.019531 -0.4375 4.03125 -0.5 C 4.050781 -0.570312 4.0625 -0.632812 4.0625 -0.6875 L 4.0625 -2.671875 C 4.0625 -2.921875 4.023438 -3.140625 3.953125 -3.328125 C 3.878906 -3.523438 3.78125 -3.6875 3.65625 -3.8125 C 3.539062 -3.9375 3.40625 -4.03125 3.25 -4.09375 C 3.101562 -4.15625 2.953125 -4.1875 2.796875 -4.1875 C 2.640625 -4.1875 2.484375 -4.15625 2.328125 -4.09375 C 2.179688 -4.03125 2.046875 -3.945312 1.921875 -3.84375 C 1.804688 -3.738281 1.710938 -3.613281 1.640625 -3.46875 C 1.566406 -3.332031 1.53125 -3.191406 1.53125 -3.046875 L 1.53125 -0.6875 C 1.53125 -0.632812 1.535156 -0.570312 1.546875 -0.5 C 1.566406 -0.4375 1.59375 -0.375 1.625 -0.3125 C 1.65625 -0.257812 1.6875 -0.210938 1.71875 -0.171875 C 1.757812 -0.128906 1.8125 -0.109375 1.875 -0.109375 L 1.875 0 L 0.484375 0 L 0.484375 -0.109375 C 0.535156 -0.109375 0.582031 -0.128906 0.625 -0.171875 C 0.664062 -0.210938 0.703125 -0.257812 0.734375 -0.3125 C 0.765625 -0.375 0.785156 -0.4375 0.796875 -0.5 C 0.816406 -0.570312 0.828125 -0.632812 0.828125 -0.6875 L 0.828125 -3.625 C 0.828125 -3.738281 0.804688 -3.851562 0.765625 -3.96875 C 0.734375 -4.082031 0.632812 -4.140625 0.46875 -4.140625 L 0.46875 -4.234375 L 1.53125 -4.578125 L 1.53125 -4 C 1.582031 -4.050781 1.644531 -4.109375 1.71875 -4.171875 C 1.800781 -4.242188 1.894531 -4.3125 2 -4.375 C 2.113281 -4.4375 2.242188 -4.484375 2.390625 -4.515625 C 2.535156 -4.554688 2.707031 -4.578125 2.90625 -4.578125 C 3.238281 -4.578125 3.519531 -4.519531 3.75 -4.40625 C 3.976562 -4.289062 4.164062 -4.144531 4.3125 -3.96875 C 4.46875 -3.789062 4.578125 -3.59375 4.640625 -3.375 C 4.710938 -3.15625 4.75 -2.941406 4.75 -2.734375 Z M 4.75 -0.6875 "/></g></g></g><g fill="#3d3d3d" fill-opacity="1"><g transform="translate(199.295052, 286.101953)"><g><path d="M 2.6875 1.96875 C 2.894531 1.96875 3.09375 1.945312 3.28125 1.90625 C 3.476562 1.875 3.648438 1.820312 3.796875 1.75 C 3.941406 1.675781 4.054688 1.585938 4.140625 1.484375 C 4.222656 1.390625 4.265625 1.285156 4.265625 1.171875 C 4.265625 1.054688 4.207031 0.957031 4.09375 0.875 C 3.976562 0.789062 3.820312 0.710938 3.625 0.640625 C 3.425781 0.578125 3.195312 0.523438 2.9375 0.484375 C 2.675781 0.441406 2.398438 0.394531 2.109375 0.34375 L 1.578125 0.25 C 1.410156 0.375 1.296875 0.503906 1.234375 0.640625 C 1.171875 0.785156 1.140625 0.910156 1.140625 1.015625 C 1.140625 1.171875 1.175781 1.304688 1.25 1.421875 C 1.332031 1.535156 1.441406 1.632812 1.578125 1.71875 C 1.722656 1.800781 1.890625 1.863281 2.078125 1.90625 C 2.265625 1.945312 2.46875 1.96875 2.6875 1.96875 Z M 3.265625 -0.15625 C 3.554688 -0.101562 3.796875 -0.046875 3.984375 0.015625 C 4.171875 0.0859375 4.316406 0.171875 4.421875 0.265625 C 4.535156 0.367188 4.613281 0.476562 4.65625 0.59375 C 4.707031 0.707031 4.734375 0.832031 4.734375 0.96875 C 4.734375 1.207031 4.664062 1.414062 4.53125 1.59375 C 4.394531 1.769531 4.222656 1.914062 4.015625 2.03125 C 3.804688 2.144531 3.566406 2.226562 3.296875 2.28125 C 3.035156 2.34375 2.769531 2.375 2.5 2.375 C 2.226562 2.375 1.96875 2.347656 1.71875 2.296875 C 1.46875 2.242188 1.25 2.164062 1.0625 2.0625 C 0.875 1.957031 0.722656 1.820312 0.609375 1.65625 C 0.492188 1.5 0.4375 1.316406 0.4375 1.109375 C 0.4375 0.929688 0.492188 0.757812 0.609375 0.59375 C 0.722656 0.425781 0.90625 0.257812 1.15625 0.09375 C 0.90625 -0.03125 0.710938 -0.203125 0.578125 -0.421875 C 0.453125 -0.640625 0.390625 -0.859375 0.390625 -1.078125 C 0.390625 -1.210938 0.421875 -1.34375 0.484375 -1.46875 C 0.546875 -1.601562 0.648438 -1.726562 0.796875 -1.84375 C 0.671875 -1.988281 0.582031 -2.128906 0.53125 -2.265625 C 0.488281 -2.410156 0.46875 -2.566406 0.46875 -2.734375 C 0.46875 -2.984375 0.519531 -3.21875 0.625 -3.4375 C 0.726562 -3.65625 0.875 -3.847656 1.0625 -4.015625 C 1.25 -4.179688 1.460938 -4.304688 1.703125 -4.390625 C 1.953125 -4.484375 2.21875 -4.53125 2.5 -4.53125 C 2.800781 -4.53125 3.085938 -4.476562 3.359375 -4.375 C 3.628906 -4.28125 3.851562 -4.148438 4.03125 -3.984375 L 4.796875 -3.984375 L 4.796875 -3.609375 L 4.3125 -3.609375 C 4.363281 -3.492188 4.410156 -3.363281 4.453125 -3.21875 C 4.503906 -3.070312 4.53125 -2.921875 4.53125 -2.765625 C 4.53125 -2.546875 4.476562 -2.332031 4.375 -2.125 C 4.269531 -1.925781 4.125 -1.75 3.9375 -1.59375 C 3.75 -1.445312 3.53125 -1.328125 3.28125 -1.234375 C 3.03125 -1.148438 2.757812 -1.109375 2.46875 -1.109375 C 2.207031 -1.109375 1.953125 -1.144531 1.703125 -1.21875 C 1.460938 -1.300781 1.242188 -1.414062 1.046875 -1.5625 C 0.972656 -1.507812 0.921875 -1.445312 0.890625 -1.375 C 0.859375 -1.300781 0.84375 -1.222656 0.84375 -1.140625 C 0.84375 -0.921875 0.945312 -0.75 1.15625 -0.625 C 1.363281 -0.5 1.625 -0.410156 1.9375 -0.359375 Z M 2.375 -4.171875 C 2.207031 -4.171875 2.046875 -4.140625 1.890625 -4.078125 C 1.742188 -4.015625 1.613281 -3.929688 1.5 -3.828125 C 1.394531 -3.722656 1.304688 -3.59375 1.234375 -3.4375 C 1.171875 -3.28125 1.140625 -3.109375 1.140625 -2.921875 C 1.140625 -2.691406 1.1875 -2.484375 1.28125 -2.296875 C 1.375 -2.109375 1.492188 -1.953125 1.640625 -1.828125 C 1.796875 -1.710938 1.960938 -1.625 2.140625 -1.5625 C 2.316406 -1.5 2.488281 -1.46875 2.65625 -1.46875 C 2.832031 -1.46875 2.992188 -1.5 3.140625 -1.5625 C 3.285156 -1.632812 3.410156 -1.726562 3.515625 -1.84375 C 3.617188 -1.957031 3.695312 -2.09375 3.75 -2.25 C 3.8125 -2.40625 3.84375 -2.566406 3.84375 -2.734375 C 3.84375 -2.953125 3.800781 -3.148438 3.71875 -3.328125 C 3.632812 -3.503906 3.519531 -3.65625 3.375 -3.78125 C 3.238281 -3.90625 3.082031 -4 2.90625 -4.0625 C 2.726562 -4.132812 2.550781 -4.171875 2.375 -4.171875 Z M 2.375 -4.171875 "/></g></g></g><g fill="#3d3d3d" fill-opacity="1"><g transform="translate(204.550591, 286.101953)"><g><path d="M 0.625 0 L 0.625 -0.109375 C 0.6875 -0.109375 0.738281 -0.128906 0.78125 -0.171875 C 0.820312 -0.210938 0.851562 -0.257812 0.875 -0.3125 C 0.90625 -0.375 0.925781 -0.4375 0.9375 -0.5 C 0.957031 -0.570312 0.96875 -0.632812 0.96875 -0.6875 L 0.96875 -3.640625 C 0.96875 -3.753906 0.945312 -3.863281 0.90625 -3.96875 C 0.875 -4.082031 0.773438 -4.144531 0.609375 -4.15625 L 0.609375 -4.25 L 1.671875 -4.59375 L 1.671875 -0.6875 C 1.671875 -0.632812 1.675781 -0.570312 1.6875 -0.5 C 1.695312 -0.4375 1.71875 -0.375 1.75 -0.3125 C 1.78125 -0.257812 1.816406 -0.210938 1.859375 -0.171875 C 1.898438 -0.128906 1.953125 -0.109375 2.015625 -0.109375 L 2.015625 0 Z M 0.6875 -5.609375 C 0.6875 -5.753906 0.734375 -5.875 0.828125 -5.96875 C 0.921875 -6.070312 1.035156 -6.125 1.171875 -6.125 C 1.316406 -6.125 1.4375 -6.070312 1.53125 -5.96875 C 1.632812 -5.875 1.6875 -5.753906 1.6875 -5.609375 C 1.6875 -5.460938 1.632812 -5.34375 1.53125 -5.25 C 1.4375 -5.164062 1.316406 -5.125 1.171875 -5.125 C 1.035156 -5.125 0.921875 -5.164062 0.828125 -5.25 C 0.734375 -5.34375 0.6875 -5.460938 0.6875 -5.609375 Z M 0.6875 -5.609375 "/></g></g></g><g fill="#3d3d3d" fill-opacity="1"><g transform="translate(207.215519, 286.101953)"><g><path d="M 4.75 -0.6875 C 4.75 -0.632812 4.753906 -0.570312 4.765625 -0.5 C 4.785156 -0.4375 4.8125 -0.375 4.84375 -0.3125 C 4.875 -0.257812 4.90625 -0.210938 4.9375 -0.171875 C 4.976562 -0.128906 5.03125 -0.109375 5.09375 -0.109375 L 5.09375 0 L 3.71875 0 L 3.71875 -0.109375 C 3.769531 -0.109375 3.816406 -0.128906 3.859375 -0.171875 C 3.898438 -0.210938 3.9375 -0.257812 3.96875 -0.3125 C 4 -0.375 4.019531 -0.4375 4.03125 -0.5 C 4.050781 -0.570312 4.0625 -0.632812 4.0625 -0.6875 L 4.0625 -2.671875 C 4.0625 -2.921875 4.023438 -3.140625 3.953125 -3.328125 C 3.878906 -3.523438 3.78125 -3.6875 3.65625 -3.8125 C 3.539062 -3.9375 3.40625 -4.03125 3.25 -4.09375 C 3.101562 -4.15625 2.953125 -4.1875 2.796875 -4.1875 C 2.640625 -4.1875 2.484375 -4.15625 2.328125 -4.09375 C 2.179688 -4.03125 2.046875 -3.945312 1.921875 -3.84375 C 1.804688 -3.738281 1.710938 -3.613281 1.640625 -3.46875 C 1.566406 -3.332031 1.53125 -3.191406 1.53125 -3.046875 L 1.53125 -0.6875 C 1.53125 -0.632812 1.535156 -0.570312 1.546875 -0.5 C 1.566406 -0.4375 1.59375 -0.375 1.625 -0.3125 C 1.65625 -0.257812 1.6875 -0.210938 1.71875 -0.171875 C 1.757812 -0.128906 1.8125 -0.109375 1.875 -0.109375 L 1.875 0 L 0.484375 0 L 0.484375 -0.109375 C 0.535156 -0.109375 0.582031 -0.128906 0.625 -0.171875 C 0.664062 -0.210938 0.703125 -0.257812 0.734375 -0.3125 C 0.765625 -0.375 0.785156 -0.4375 0.796875 -0.5 C 0.816406 -0.570312 0.828125 -0.632812 0.828125 -0.6875 L 0.828125 -3.625 C 0.828125 -3.738281 0.804688 -3.851562 0.765625 -3.96875 C 0.734375 -4.082031 0.632812 -4.140625 0.46875 -4.140625 L 0.46875 -4.234375 L 1.53125 -4.578125 L 1.53125 -4 C 1.582031 -4.050781 1.644531 -4.109375 1.71875 -4.171875 C 1.800781 -4.242188 1.894531 -4.3125 2 -4.375 C 2.113281 -4.4375 2.242188 -4.484375 2.390625 -4.515625 C 2.535156 -4.554688 2.707031 -4.578125 2.90625 -4.578125 C 3.238281 -4.578125 3.519531 -4.519531 3.75 -4.40625 C 3.976562 -4.289062 4.164062 -4.144531 4.3125 -3.96875 C 4.46875 -3.789062 4.578125 -3.59375 4.640625 -3.375 C 4.710938 -3.15625 4.75 -2.941406 4.75 -2.734375 Z M 4.75 -0.6875 "/></g></g></g><g fill="#3d3d3d" fill-opacity="1"><g transform="translate(212.863899, 286.101953)"><g><path d="M 1.0625 -2.140625 C 1.09375 -1.898438 1.148438 -1.664062 1.234375 -1.4375 C 1.328125 -1.21875 1.453125 -1.019531 1.609375 -0.84375 C 1.765625 -0.675781 1.953125 -0.539062 2.171875 -0.4375 C 2.390625 -0.332031 2.644531 -0.28125 2.9375 -0.28125 C 3.09375 -0.28125 3.253906 -0.300781 3.421875 -0.34375 C 3.597656 -0.394531 3.757812 -0.460938 3.90625 -0.546875 C 4.0625 -0.640625 4.195312 -0.742188 4.3125 -0.859375 C 4.425781 -0.984375 4.503906 -1.125 4.546875 -1.28125 L 4.640625 -1.28125 L 4.640625 -0.484375 C 4.597656 -0.484375 4.550781 -0.46875 4.5 -0.4375 C 4.445312 -0.414062 4.382812 -0.382812 4.3125 -0.34375 C 4.164062 -0.257812 3.972656 -0.164062 3.734375 -0.0625 C 3.492188 0.03125 3.175781 0.078125 2.78125 0.078125 C 2.46875 0.078125 2.164062 0.03125 1.875 -0.0625 C 1.582031 -0.15625 1.328125 -0.296875 1.109375 -0.484375 C 0.890625 -0.679688 0.710938 -0.925781 0.578125 -1.21875 C 0.453125 -1.519531 0.390625 -1.875 0.390625 -2.28125 C 0.390625 -2.539062 0.429688 -2.804688 0.515625 -3.078125 C 0.609375 -3.347656 0.742188 -3.59375 0.921875 -3.8125 C 1.109375 -4.03125 1.34375 -4.203125 1.625 -4.328125 C 1.90625 -4.460938 2.242188 -4.53125 2.640625 -4.53125 C 2.992188 -4.53125 3.300781 -4.46875 3.5625 -4.34375 C 3.832031 -4.226562 4.054688 -4.0625 4.234375 -3.84375 C 4.410156 -3.632812 4.539062 -3.382812 4.625 -3.09375 C 4.707031 -2.8125 4.75 -2.492188 4.75 -2.140625 Z M 2.609375 -4.1875 C 2.359375 -4.1875 2.140625 -4.132812 1.953125 -4.03125 C 1.773438 -3.9375 1.625 -3.8125 1.5 -3.65625 C 1.375 -3.5 1.273438 -3.320312 1.203125 -3.125 C 1.128906 -2.925781 1.082031 -2.726562 1.0625 -2.53125 L 4.09375 -2.53125 C 4.082031 -2.738281 4.039062 -2.941406 3.96875 -3.140625 C 3.90625 -3.335938 3.8125 -3.515625 3.6875 -3.671875 C 3.570312 -3.828125 3.421875 -3.953125 3.234375 -4.046875 C 3.054688 -4.140625 2.847656 -4.1875 2.609375 -4.1875 Z M 2.609375 -4.1875 "/></g></g></g><g fill="#3d3d3d" fill-opacity="1"><g transform="translate(218.013271, 286.101953)"><g><path d="M 1.0625 -2.140625 C 1.09375 -1.898438 1.148438 -1.664062 1.234375 -1.4375 C 1.328125 -1.21875 1.453125 -1.019531 1.609375 -0.84375 C 1.765625 -0.675781 1.953125 -0.539062 2.171875 -0.4375 C 2.390625 -0.332031 2.644531 -0.28125 2.9375 -0.28125 C 3.09375 -0.28125 3.253906 -0.300781 3.421875 -0.34375 C 3.597656 -0.394531 3.757812 -0.460938 3.90625 -0.546875 C 4.0625 -0.640625 4.195312 -0.742188 4.3125 -0.859375 C 4.425781 -0.984375 4.503906 -1.125 4.546875 -1.28125 L 4.640625 -1.28125 L 4.640625 -0.484375 C 4.597656 -0.484375 4.550781 -0.46875 4.5 -0.4375 C 4.445312 -0.414062 4.382812 -0.382812 4.3125 -0.34375 C 4.164062 -0.257812 3.972656 -0.164062 3.734375 -0.0625 C 3.492188 0.03125 3.175781 0.078125 2.78125 0.078125 C 2.46875 0.078125 2.164062 0.03125 1.875 -0.0625 C 1.582031 -0.15625 1.328125 -0.296875 1.109375 -0.484375 C 0.890625 -0.679688 0.710938 -0.925781 0.578125 -1.21875 C 0.453125 -1.519531 0.390625 -1.875 0.390625 -2.28125 C 0.390625 -2.539062 0.429688 -2.804688 0.515625 -3.078125 C 0.609375 -3.347656 0.742188 -3.59375 0.921875 -3.8125 C 1.109375 -4.03125 1.34375 -4.203125 1.625 -4.328125 C 1.90625 -4.460938 2.242188 -4.53125 2.640625 -4.53125 C 2.992188 -4.53125 3.300781 -4.46875 3.5625 -4.34375 C 3.832031 -4.226562 4.054688 -4.0625 4.234375 -3.84375 C 4.410156 -3.632812 4.539062 -3.382812 4.625 -3.09375 C 4.707031 -2.8125 4.75 -2.492188 4.75 -2.140625 Z M 2.609375 -4.1875 C 2.359375 -4.1875 2.140625 -4.132812 1.953125 -4.03125 C 1.773438 -3.9375 1.625 -3.8125 1.5 -3.65625 C 1.375 -3.5 1.273438 -3.320312 1.203125 -3.125 C 1.128906 -2.925781 1.082031 -2.726562 1.0625 -2.53125 L 4.09375 -2.53125 C 4.082031 -2.738281 4.039062 -2.941406 3.96875 -3.140625 C 3.90625 -3.335938 3.8125 -3.515625 3.6875 -3.671875 C 3.570312 -3.828125 3.421875 -3.953125 3.234375 -4.046875 C 3.054688 -4.140625 2.847656 -4.1875 2.609375 -4.1875 Z M 2.609375 -4.1875 "/></g></g></g><g fill="#3d3d3d" fill-opacity="1"><g transform="translate(223.162643, 286.101953)"><g><path d="M 3.078125 -3.6875 C 2.984375 -3.832031 2.890625 -3.921875 2.796875 -3.953125 C 2.710938 -3.984375 2.609375 -4 2.484375 -4 C 2.410156 -4 2.328125 -3.984375 2.234375 -3.953125 C 2.148438 -3.921875 2.0625 -3.875 1.96875 -3.8125 C 1.882812 -3.757812 1.800781 -3.695312 1.71875 -3.625 C 1.644531 -3.5625 1.578125 -3.5 1.515625 -3.4375 L 1.515625 -0.6875 C 1.515625 -0.625 1.519531 -0.5625 1.53125 -0.5 C 1.550781 -0.4375 1.578125 -0.375 1.609375 -0.3125 C 1.640625 -0.25 1.675781 -0.195312 1.71875 -0.15625 C 1.757812 -0.125 1.804688 -0.109375 1.859375 -0.109375 L 1.859375 0 L 0.484375 0 L 0.484375 -0.109375 C 0.523438 -0.109375 0.566406 -0.125 0.609375 -0.15625 C 0.660156 -0.195312 0.703125 -0.25 0.734375 -0.3125 C 0.765625 -0.375 0.785156 -0.4375 0.796875 -0.5 C 0.804688 -0.5625 0.8125 -0.625 0.8125 -0.6875 L 0.8125 -3.640625 C 0.8125 -3.742188 0.78125 -3.84375 0.71875 -3.9375 C 0.65625 -4.039062 0.566406 -4.109375 0.453125 -4.140625 L 0.453125 -4.21875 L 1.515625 -4.53125 L 1.515625 -3.90625 C 1.578125 -3.976562 1.644531 -4.050781 1.71875 -4.125 C 1.789062 -4.195312 1.867188 -4.265625 1.953125 -4.328125 C 2.046875 -4.390625 2.144531 -4.4375 2.25 -4.46875 C 2.351562 -4.507812 2.476562 -4.53125 2.625 -4.53125 C 2.71875 -4.53125 2.84375 -4.507812 3 -4.46875 C 3.15625 -4.425781 3.285156 -4.378906 3.390625 -4.328125 Z M 3.078125 -3.6875 "/></g></g></g></svg>