<svg xmlns="http://www.w3.org/2000/svg" xmlns:xlink="http://www.w3.org/1999/xlink" width="500" zoomAndPan="magnify" viewBox="0 0 375 374.999991" height="500" preserveAspectRatio="xMidYMid meet" version="1.0"><defs><g/></defs><g fill="#060606" fill-opacity="1"><g transform="translate(43.588504, 208.645716)"><g><path d="M 20.65625 -19.703125 C 25.238281 -19.347656 28.609375 -18.285156 30.765625 -16.515625 C 32.921875 -14.753906 34 -12.671875 34 -10.265625 C 34 -6.984375 32.707031 -4.453125 30.125 -2.671875 C 27.550781 -0.890625 23.96875 0 19.375 0 C 18.351562 0 17.488281 -0.015625 16.78125 -0.046875 C 14.457031 -0.117188 12.179688 -0.15625 9.953125 -0.15625 C 6.316406 -0.15625 3.597656 -0.101562 1.796875 0 L 1.796875 -1.0625 C 2.960938 -1.132812 3.816406 -1.273438 4.359375 -1.484375 C 4.910156 -1.691406 5.28125 -2.09375 5.46875 -2.6875 C 5.664062 -3.289062 5.765625 -4.265625 5.765625 -5.609375 L 5.765625 -31.875 C 5.765625 -33.21875 5.664062 -34.1875 5.46875 -34.78125 C 5.28125 -35.382812 4.910156 -35.789062 4.359375 -36 C 3.816406 -36.21875 2.960938 -36.363281 1.796875 -36.4375 L 1.796875 -37.484375 C 3.597656 -37.378906 6.28125 -37.328125 9.84375 -37.328125 L 15.734375 -37.390625 C 16.429688 -37.421875 17.238281 -37.4375 18.15625 -37.4375 C 22.394531 -37.4375 25.632812 -36.675781 27.875 -35.15625 C 30.125 -33.644531 31.25 -31.632812 31.25 -29.125 C 31.25 -27.070312 30.351562 -25.160156 28.5625 -23.390625 C 26.78125 -21.628906 24.144531 -20.429688 20.65625 -19.796875 Z M 17.46875 -36.4375 C 16.519531 -36.4375 15.820312 -36.3125 15.375 -36.0625 C 14.9375 -35.8125 14.628906 -35.367188 14.453125 -34.734375 C 14.273438 -34.097656 14.1875 -33.144531 14.1875 -31.875 L 14.1875 -19.90625 L 16.46875 -19.90625 C 18.757812 -19.90625 20.363281 -20.691406 21.28125 -22.265625 C 22.195312 -23.835938 22.65625 -25.929688 22.65625 -28.546875 C 22.65625 -31.191406 22.238281 -33.164062 21.40625 -34.46875 C 20.582031 -35.78125 19.269531 -36.4375 17.46875 -36.4375 Z M 17.84375 -1.21875 C 22.75 -1.21875 25.203125 -4.304688 25.203125 -10.484375 C 25.203125 -13.273438 24.492188 -15.394531 23.078125 -16.84375 C 21.671875 -18.289062 19.453125 -19.015625 16.421875 -19.015625 L 14.1875 -19.015625 L 14.1875 -5.609375 C 14.1875 -4.335938 14.273438 -3.398438 14.453125 -2.796875 C 14.628906 -2.203125 14.972656 -1.789062 15.484375 -1.5625 C 15.992188 -1.332031 16.78125 -1.21875 17.84375 -1.21875 Z M 17.84375 -1.21875 "/></g></g></g><g fill="#060606" fill-opacity="1"><g transform="translate(77.579813, 208.645716)"><g><path d="M 19.484375 -28.125 C 21.078125 -28.125 22.28125 -27.644531 23.09375 -26.6875 C 23.90625 -25.738281 24.3125 -24.59375 24.3125 -23.25 C 24.3125 -21.9375 23.929688 -20.863281 23.171875 -20.03125 C 22.410156 -19.207031 21.410156 -18.796875 20.171875 -18.796875 C 18.972656 -18.796875 18.019531 -19.101562 17.3125 -19.71875 C 16.601562 -20.34375 16.25 -21.164062 16.25 -22.1875 C 16.25 -23.882812 17.03125 -25.257812 18.59375 -26.3125 C 18.445312 -26.351562 18.234375 -26.375 17.953125 -26.375 C 17.597656 -26.375 17.316406 -26.335938 17.109375 -26.265625 C 15.765625 -26.054688 14.625 -25.242188 13.6875 -23.828125 C 12.75 -22.410156 12.28125 -20.960938 12.28125 -19.484375 L 12.28125 -5.453125 C 12.28125 -3.828125 12.675781 -2.695312 13.46875 -2.0625 C 14.269531 -1.425781 15.535156 -1.109375 17.265625 -1.109375 L 17.265625 0 C 16.765625 0 16.359375 -0.015625 16.046875 -0.046875 C 12.441406 -0.160156 10.039062 -0.21875 8.84375 -0.21875 C 7.882812 -0.21875 5.710938 -0.160156 2.328125 -0.046875 C 2.046875 -0.015625 1.691406 0 1.265625 0 L 1.265625 -1.109375 C 2.535156 -1.109375 3.414062 -1.378906 3.90625 -1.921875 C 4.40625 -2.472656 4.65625 -3.472656 4.65625 -4.921875 L 4.65625 -21.609375 C 4.65625 -23.234375 4.40625 -24.414062 3.90625 -25.15625 C 3.414062 -25.894531 2.535156 -26.265625 1.265625 -26.265625 L 1.265625 -27.375 C 2.398438 -27.269531 3.492188 -27.21875 4.546875 -27.21875 C 7.691406 -27.21875 10.269531 -27.460938 12.28125 -27.953125 L 12.28125 -23.03125 C 12.957031 -24.550781 13.929688 -25.78125 15.203125 -26.71875 C 16.472656 -27.65625 17.898438 -28.125 19.484375 -28.125 Z M 19.484375 -28.125 "/></g></g></g><g fill="#060606" fill-opacity="1"><g transform="translate(100.717112, 208.645716)"><g><path d="M 8.265625 0.375 C 6.003906 0.375 4.316406 -0.207031 3.203125 -1.375 C 2.085938 -2.539062 1.53125 -4.078125 1.53125 -5.984375 C 1.53125 -7.566406 1.945312 -8.878906 2.78125 -9.921875 C 3.613281 -10.960938 4.617188 -11.765625 5.796875 -12.328125 C 6.984375 -12.898438 8.492188 -13.503906 10.328125 -14.140625 C 12.265625 -14.804688 13.679688 -15.410156 14.578125 -15.953125 C 15.484375 -16.503906 15.9375 -17.257812 15.9375 -18.21875 L 15.9375 -22.34375 C 15.9375 -23.820312 15.59375 -24.976562 14.90625 -25.8125 C 14.21875 -26.644531 13.148438 -27.0625 11.703125 -27.0625 C 10.003906 -27.0625 8.71875 -26.632812 7.84375 -25.78125 C 8.820312 -25.4375 9.585938 -24.910156 10.140625 -24.203125 C 10.691406 -23.492188 10.96875 -22.660156 10.96875 -21.703125 C 10.96875 -20.503906 10.5625 -19.550781 9.75 -18.84375 C 8.9375 -18.144531 7.945312 -17.796875 6.78125 -17.796875 C 5.539062 -17.796875 4.582031 -18.179688 3.90625 -18.953125 C 3.238281 -19.734375 2.90625 -20.707031 2.90625 -21.875 C 2.90625 -22.863281 3.144531 -23.703125 3.625 -24.390625 C 4.101562 -25.078125 4.835938 -25.71875 5.828125 -26.3125 C 6.773438 -26.882812 7.945312 -27.328125 9.34375 -27.640625 C 10.738281 -27.960938 12.265625 -28.125 13.921875 -28.125 C 15.648438 -28.125 17.148438 -27.945312 18.421875 -27.59375 C 19.691406 -27.238281 20.753906 -26.632812 21.609375 -25.78125 C 22.378906 -25.007812 22.894531 -24.054688 23.15625 -22.921875 C 23.425781 -21.796875 23.5625 -20.265625 23.5625 -18.328125 L 23.5625 -3.921875 C 23.5625 -3.066406 23.640625 -2.460938 23.796875 -2.109375 C 23.960938 -1.765625 24.273438 -1.59375 24.734375 -1.59375 C 25.265625 -1.59375 25.898438 -1.890625 26.640625 -2.484375 L 27.171875 -1.59375 C 25.578125 -0.28125 23.632812 0.375 21.34375 0.375 C 19.394531 0.375 18.03125 -0.0078125 17.25 -0.78125 C 16.476562 -1.5625 16.078125 -2.609375 16.046875 -3.921875 C 14.273438 -1.054688 11.679688 0.375 8.265625 0.375 Z M 12.34375 -3.015625 C 13.71875 -3.015625 14.914062 -3.738281 15.9375 -5.1875 L 15.9375 -16.046875 C 15.507812 -15.335938 14.609375 -14.5625 13.234375 -13.71875 C 11.859375 -12.832031 10.816406 -11.945312 10.109375 -11.0625 C 9.410156 -10.1875 9.0625 -8.914062 9.0625 -7.25 C 9.0625 -5.800781 9.359375 -4.734375 9.953125 -4.046875 C 10.554688 -3.359375 11.351562 -3.015625 12.34375 -3.015625 Z M 12.34375 -3.015625 "/></g></g></g><g fill="#060606" fill-opacity="1"><g transform="translate(126.554678, 208.645716)"><g><path d="M 27.328125 -5.828125 C 27.328125 -4.203125 27.570312 -3.019531 28.0625 -2.28125 C 28.5625 -1.539062 29.445312 -1.171875 30.71875 -1.171875 L 30.71875 -0.046875 C 29.625 -0.160156 28.53125 -0.21875 27.4375 -0.21875 C 24.289062 -0.21875 21.710938 0.03125 19.703125 0.53125 L 19.703125 -4.03125 C 18.492188 -0.851562 16.195312 0.734375 12.8125 0.734375 C 9.5 0.734375 6.859375 -0.472656 4.890625 -2.890625 C 2.929688 -5.304688 1.972656 -8.953125 2.015625 -13.828125 C 2.015625 -16.929688 2.515625 -19.550781 3.515625 -21.6875 C 4.523438 -23.820312 5.921875 -25.425781 7.703125 -26.5 C 9.484375 -27.582031 11.523438 -28.125 13.828125 -28.125 C 16.398438 -28.125 18.359375 -27.453125 19.703125 -26.109375 L 19.703125 -35.109375 C 19.703125 -36.734375 19.441406 -37.914062 18.921875 -38.65625 C 18.410156 -39.394531 17.539062 -39.765625 16.3125 -39.765625 L 16.3125 -40.875 C 17.4375 -40.769531 18.53125 -40.71875 19.59375 -40.71875 C 22.664062 -40.71875 25.242188 -40.96875 27.328125 -41.46875 Z M 14.984375 -1.53125 C 16.148438 -1.53125 17.179688 -1.953125 18.078125 -2.796875 C 18.984375 -3.648438 19.523438 -4.800781 19.703125 -6.25 L 19.703125 -24.78125 C 18.816406 -25.976562 17.523438 -26.578125 15.828125 -26.578125 C 13.960938 -26.578125 12.515625 -25.5 11.484375 -23.34375 C 10.460938 -21.195312 9.972656 -17.988281 10.015625 -13.71875 C 9.972656 -9.40625 10.382812 -6.296875 11.25 -4.390625 C 12.113281 -2.484375 13.359375 -1.53125 14.984375 -1.53125 Z M 14.984375 -1.53125 "/></g></g></g><g fill="#060606" fill-opacity="1"><g transform="translate(156.627953, 208.645716)"><g><path d="M 23.09375 -27.21875 C 24.851562 -27.21875 26.210938 -27.269531 27.171875 -27.375 L 27.171875 -26.3125 C 26.421875 -26.101562 25.753906 -25.65625 25.171875 -24.96875 C 24.597656 -24.28125 24.046875 -23.210938 23.515625 -21.765625 L 14.03125 4.875 C 13.320312 6.707031 12.546875 7.957031 11.703125 8.625 C 10.679688 9.507812 9.144531 9.953125 7.09375 9.953125 C 5.613281 9.953125 4.28125 9.585938 3.09375 8.859375 C 1.914062 8.140625 1.328125 7.09375 1.328125 5.71875 C 1.328125 4.625 1.710938 3.75 2.484375 3.09375 C 3.265625 2.445312 4.289062 2.125 5.5625 2.125 C 6.757812 2.125 7.71875 2.410156 8.4375 2.984375 C 9.164062 3.566406 9.53125 4.390625 9.53125 5.453125 C 9.53125 6.191406 9.300781 6.867188 8.84375 7.484375 C 8.382812 8.109375 7.734375 8.578125 6.890625 8.890625 C 7.128906 8.929688 7.535156 8.953125 8.109375 8.953125 C 10.296875 8.953125 11.898438 7.554688 12.921875 4.765625 L 13.765625 2.21875 L 2.546875 -23.296875 C 1.972656 -24.492188 1.421875 -25.285156 0.890625 -25.671875 C 0.367188 -26.066406 -0.171875 -26.265625 -0.734375 -26.265625 L -0.734375 -27.375 C 1.585938 -27.164062 4.003906 -27.0625 6.515625 -27.0625 C 8.597656 -27.0625 11.050781 -27.164062 13.875 -27.375 L 13.875 -26.265625 C 12.738281 -26.265625 11.894531 -26.179688 11.34375 -26.015625 C 10.800781 -25.859375 10.53125 -25.445312 10.53125 -24.78125 C 10.53125 -24.394531 10.65625 -23.898438 10.90625 -23.296875 L 17.375 -7.671875 L 21.015625 -17.84375 C 21.585938 -19.5 21.875 -20.910156 21.875 -22.078125 C 21.875 -24.660156 20.566406 -26.070312 17.953125 -26.3125 L 17.953125 -27.375 C 19.609375 -27.269531 21.320312 -27.21875 23.09375 -27.21875 Z M 23.09375 -27.21875 "/></g></g></g><g fill="#060606" fill-opacity="1"><g transform="translate(182.518467, 208.645716)"><g/></g></g><g fill="#060606" fill-opacity="1"><g transform="translate(193.266327, 208.645716)"><g><path d="M 15.03125 -38.171875 C 16.875 -38.171875 18.34375 -37.992188 19.4375 -37.640625 C 20.53125 -37.296875 21.640625 -36.785156 22.765625 -36.109375 C 23.160156 -35.898438 23.503906 -35.722656 23.796875 -35.578125 C 24.097656 -35.441406 24.351562 -35.375 24.5625 -35.375 C 24.882812 -35.375 25.132812 -35.554688 25.3125 -35.921875 C 25.488281 -36.296875 25.628906 -36.890625 25.734375 -37.703125 L 26.953125 -37.703125 C 26.773438 -35.335938 26.6875 -31.3125 26.6875 -25.625 L 25.46875 -25.625 C 25.332031 -27.53125 24.898438 -29.347656 24.171875 -31.078125 C 23.453125 -32.804688 22.425781 -34.207031 21.09375 -35.28125 C 19.769531 -36.363281 18.226562 -36.90625 16.46875 -36.90625 C 14.738281 -36.90625 13.332031 -36.421875 12.25 -35.453125 C 11.175781 -34.484375 10.640625 -33.164062 10.640625 -31.5 C 10.640625 -30.269531 10.90625 -29.195312 11.4375 -28.28125 C 11.96875 -27.363281 12.707031 -26.523438 13.65625 -25.765625 C 14.613281 -25.003906 16.082031 -23.96875 18.0625 -22.65625 L 19.75 -21.5 C 21.832031 -20.125 23.472656 -18.921875 24.671875 -17.890625 C 25.878906 -16.867188 26.859375 -15.675781 27.609375 -14.3125 C 28.367188 -12.957031 28.75 -11.378906 28.75 -9.578125 C 28.75 -7.328125 28.164062 -5.429688 27 -3.890625 C 25.84375 -2.359375 24.265625 -1.203125 22.265625 -0.421875 C 20.273438 0.347656 18.0625 0.734375 15.625 0.734375 C 13.644531 0.734375 12 0.554688 10.6875 0.203125 C 9.382812 -0.140625 8.1875 -0.613281 7.09375 -1.21875 C 6.320312 -1.707031 5.722656 -1.953125 5.296875 -1.953125 C 4.972656 -1.953125 4.722656 -1.765625 4.546875 -1.390625 C 4.378906 -1.023438 4.238281 -0.4375 4.125 0.375 L 2.90625 0.375 C 3.050781 -1.851562 3.125 -6.617188 3.125 -13.921875 L 4.34375 -13.921875 C 4.59375 -9.972656 5.472656 -6.769531 6.984375 -4.3125 C 8.503906 -1.863281 10.835938 -0.640625 13.984375 -0.640625 C 15.890625 -0.640625 17.457031 -1.148438 18.6875 -2.171875 C 19.925781 -3.191406 20.546875 -4.65625 20.546875 -6.5625 C 20.546875 -8.539062 19.910156 -10.234375 18.640625 -11.640625 C 17.367188 -13.054688 15.359375 -14.648438 12.609375 -16.421875 C 10.484375 -17.796875 8.785156 -18.992188 7.515625 -20.015625 C 6.242188 -21.035156 5.203125 -22.242188 4.390625 -23.640625 C 3.578125 -25.035156 3.171875 -26.648438 3.171875 -28.484375 C 3.171875 -30.609375 3.707031 -32.398438 4.78125 -33.859375 C 5.863281 -35.328125 7.304688 -36.410156 9.109375 -37.109375 C 10.910156 -37.816406 12.882812 -38.171875 15.03125 -38.171875 Z M 15.03125 -38.171875 "/></g></g></g><g fill="#060606" fill-opacity="1"><g transform="translate(222.598347, 208.645716)"><g><path d="M 12.015625 -27.375 L 18.265625 -27.375 L 18.265625 -26.3125 L 12.015625 -26.3125 L 12.015625 -4.921875 C 12.015625 -3.867188 12.195312 -3.117188 12.5625 -2.671875 C 12.9375 -2.234375 13.53125 -2.015625 14.34375 -2.015625 C 15.863281 -2.015625 17.066406 -3.070312 17.953125 -5.1875 L 18.84375 -4.71875 C 17.507812 -1.082031 15.09375 0.734375 11.59375 0.734375 C 9.269531 0.734375 7.503906 0.132812 6.296875 -1.0625 C 5.554688 -1.800781 5.050781 -2.722656 4.78125 -3.828125 C 4.519531 -4.941406 4.390625 -6.472656 4.390625 -8.421875 L 4.390625 -26.3125 L -0.046875 -26.3125 L -0.046875 -27.375 L 4.390625 -27.375 L 4.390625 -34.359375 C 7.328125 -34.359375 9.867188 -34.925781 12.015625 -36.0625 Z M 12.015625 -27.375 "/></g></g></g><g fill="#060606" fill-opacity="1"><g transform="translate(239.646826, 208.645716)"><g><path d="M 16.84375 -3.59375 C 19.738281 -3.59375 22.066406 -5.007812 23.828125 -7.84375 L 24.78125 -7.515625 C 24.070312 -5.222656 22.804688 -3.273438 20.984375 -1.671875 C 19.171875 -0.0664062 16.90625 0.734375 14.1875 0.734375 C 10.445312 0.734375 7.472656 -0.453125 5.265625 -2.828125 C 3.054688 -5.210938 1.953125 -8.734375 1.953125 -13.390625 C 1.953125 -18.160156 3.132812 -21.804688 5.5 -24.328125 C 7.875 -26.859375 11.019531 -28.125 14.9375 -28.125 C 21.570312 -28.125 24.890625 -24.203125 24.890625 -16.359375 L 10.015625 -16.359375 C 9.972656 -15.828125 9.953125 -15 9.953125 -13.875 C 9.953125 -11.539062 10.28125 -9.597656 10.9375 -8.046875 C 11.59375 -6.492188 12.4375 -5.363281 13.46875 -4.65625 C 14.507812 -3.945312 15.632812 -3.59375 16.84375 -3.59375 Z M 14.609375 -27 C 13.335938 -27 12.285156 -26.210938 11.453125 -24.640625 C 10.628906 -23.078125 10.113281 -20.65625 9.90625 -17.375 L 18.21875 -17.375 C 18.289062 -20.15625 18.015625 -22.453125 17.390625 -24.265625 C 16.773438 -26.085938 15.847656 -27 14.609375 -27 Z M 14.609375 -27 "/></g></g></g><g fill="#060606" fill-opacity="1"><g transform="translate(264.743156, 208.645716)"><g><path d="M 16.84375 -3.59375 C 19.738281 -3.59375 22.066406 -5.007812 23.828125 -7.84375 L 24.78125 -7.515625 C 24.070312 -5.222656 22.804688 -3.273438 20.984375 -1.671875 C 19.171875 -0.0664062 16.90625 0.734375 14.1875 0.734375 C 10.445312 0.734375 7.472656 -0.453125 5.265625 -2.828125 C 3.054688 -5.210938 1.953125 -8.734375 1.953125 -13.390625 C 1.953125 -18.160156 3.132812 -21.804688 5.5 -24.328125 C 7.875 -26.859375 11.019531 -28.125 14.9375 -28.125 C 21.570312 -28.125 24.890625 -24.203125 24.890625 -16.359375 L 10.015625 -16.359375 C 9.972656 -15.828125 9.953125 -15 9.953125 -13.875 C 9.953125 -11.539062 10.28125 -9.597656 10.9375 -8.046875 C 11.59375 -6.492188 12.4375 -5.363281 13.46875 -4.65625 C 14.507812 -3.945312 15.632812 -3.59375 16.84375 -3.59375 Z M 14.609375 -27 C 13.335938 -27 12.285156 -26.210938 11.453125 -24.640625 C 10.628906 -23.078125 10.113281 -20.65625 9.90625 -17.375 L 18.21875 -17.375 C 18.289062 -20.15625 18.015625 -22.453125 17.390625 -24.265625 C 16.773438 -26.085938 15.847656 -27 14.609375 -27 Z M 14.609375 -27 "/></g></g></g><g fill="#060606" fill-opacity="1"><g transform="translate(289.839485, 208.645716)"><g><path d="M 12.078125 -4.921875 C 12.078125 -3.472656 12.320312 -2.472656 12.8125 -1.921875 C 13.3125 -1.378906 14.195312 -1.109375 15.46875 -1.109375 L 15.46875 0 C 11.789062 -0.144531 9.421875 -0.21875 8.359375 -0.21875 C 7.160156 -0.21875 4.726562 -0.144531 1.0625 0 L 1.0625 -1.109375 C 2.289062 -1.109375 3.160156 -1.378906 3.671875 -1.921875 C 4.191406 -2.472656 4.453125 -3.472656 4.453125 -4.921875 L 4.453125 -35.109375 C 4.453125 -36.734375 4.191406 -37.914062 3.671875 -38.65625 C 3.160156 -39.394531 2.289062 -39.765625 1.0625 -39.765625 L 1.0625 -40.875 C 2.1875 -40.769531 3.28125 -40.71875 4.34375 -40.71875 C 7.414062 -40.71875 9.992188 -40.96875 12.078125 -41.46875 Z M 12.078125 -4.921875 "/></g></g></g><g fill="#060606" fill-opacity="1"><g transform="translate(304.717165, 208.645716)"><g><path d="M 16.84375 -3.59375 C 19.738281 -3.59375 22.066406 -5.007812 23.828125 -7.84375 L 24.78125 -7.515625 C 24.070312 -5.222656 22.804688 -3.273438 20.984375 -1.671875 C 19.171875 -0.0664062 16.90625 0.734375 14.1875 0.734375 C 10.445312 0.734375 7.472656 -0.453125 5.265625 -2.828125 C 3.054688 -5.210938 1.953125 -8.734375 1.953125 -13.390625 C 1.953125 -18.160156 3.132812 -21.804688 5.5 -24.328125 C 7.875 -26.859375 11.019531 -28.125 14.9375 -28.125 C 21.570312 -28.125 24.890625 -24.203125 24.890625 -16.359375 L 10.015625 -16.359375 C 9.972656 -15.828125 9.953125 -15 9.953125 -13.875 C 9.953125 -11.539062 10.28125 -9.597656 10.9375 -8.046875 C 11.59375 -6.492188 12.4375 -5.363281 13.46875 -4.65625 C 14.507812 -3.945312 15.632812 -3.59375 16.84375 -3.59375 Z M 14.609375 -27 C 13.335938 -27 12.285156 -26.210938 11.453125 -24.640625 C 10.628906 -23.078125 10.113281 -20.65625 9.90625 -17.375 L 18.21875 -17.375 C 18.289062 -20.15625 18.015625 -22.453125 17.390625 -24.265625 C 16.773438 -26.085938 15.847656 -27 14.609375 -27 Z M 14.609375 -27 "/></g></g></g><g fill="#060606" fill-opacity="1"><g transform="translate(33.93187, 134.64673)"><g><path d="M 3.265625 -7.15625 C 4.179688 -7.15625 5.007812 -6.910156 5.75 -6.421875 L 5.25 -5.359375 C 4.53125 -5.804688 3.835938 -6.03125 3.171875 -6.03125 C 2.816406 -6.03125 2.535156 -5.960938 2.328125 -5.828125 C 2.117188 -5.703125 2.015625 -5.519531 2.015625 -5.28125 C 2.015625 -5.039062 2.109375 -4.835938 2.296875 -4.671875 C 2.484375 -4.515625 2.71875 -4.394531 3 -4.3125 C 3.289062 -4.238281 3.601562 -4.140625 3.9375 -4.015625 C 4.269531 -3.898438 4.578125 -3.773438 4.859375 -3.640625 C 5.140625 -3.515625 5.375 -3.3125 5.5625 -3.03125 C 5.75 -2.75 5.84375 -2.410156 5.84375 -2.015625 C 5.84375 -1.390625 5.59375 -0.890625 5.09375 -0.515625 C 4.59375 -0.140625 3.945312 0.046875 3.15625 0.046875 C 2.625 0.046875 2.101562 -0.0507812 1.59375 -0.25 C 1.082031 -0.457031 0.640625 -0.734375 0.265625 -1.078125 L 0.78125 -2.125 C 1.132812 -1.789062 1.523438 -1.53125 1.953125 -1.34375 C 2.390625 -1.164062 2.800781 -1.078125 3.1875 -1.078125 C 3.601562 -1.078125 3.925781 -1.15625 4.15625 -1.3125 C 4.394531 -1.46875 4.515625 -1.679688 4.515625 -1.953125 C 4.515625 -2.191406 4.414062 -2.394531 4.21875 -2.5625 C 4.03125 -2.726562 3.796875 -2.847656 3.515625 -2.921875 C 3.234375 -3.003906 2.925781 -3.097656 2.59375 -3.203125 C 2.257812 -3.316406 1.953125 -3.4375 1.671875 -3.5625 C 1.390625 -3.6875 1.148438 -3.882812 0.953125 -4.15625 C 0.765625 -4.4375 0.671875 -4.773438 0.671875 -5.171875 C 0.671875 -5.773438 0.90625 -6.253906 1.375 -6.609375 C 1.851562 -6.972656 2.484375 -7.15625 3.265625 -7.15625 Z M 3.265625 -7.15625 "/></g></g></g><g fill="#060606" fill-opacity="1"><g transform="translate(45.823447, 134.64673)"><g><path d="M 1.421875 -6.09375 C 2.148438 -6.78125 3.046875 -7.125 4.109375 -7.125 C 5.171875 -7.125 6.0625 -6.78125 6.78125 -6.09375 C 7.507812 -5.414062 7.875 -4.566406 7.875 -3.546875 C 7.875 -2.535156 7.507812 -1.679688 6.78125 -0.984375 C 6.0625 -0.296875 5.171875 0.046875 4.109375 0.046875 C 3.046875 0.046875 2.148438 -0.296875 1.421875 -0.984375 C 0.703125 -1.679688 0.34375 -2.535156 0.34375 -3.546875 C 0.34375 -4.566406 0.703125 -5.414062 1.421875 -6.09375 Z M 4.109375 -6.046875 C 3.410156 -6.046875 2.8125 -5.804688 2.3125 -5.328125 C 1.8125 -4.847656 1.5625 -4.253906 1.5625 -3.546875 C 1.5625 -2.847656 1.8125 -2.253906 2.3125 -1.765625 C 2.820312 -1.273438 3.421875 -1.03125 4.109375 -1.03125 C 4.804688 -1.03125 5.398438 -1.273438 5.890625 -1.765625 C 6.390625 -2.253906 6.640625 -2.847656 6.640625 -3.546875 C 6.640625 -4.253906 6.390625 -4.847656 5.890625 -5.328125 C 5.398438 -5.804688 4.804688 -6.046875 4.109375 -6.046875 Z M 4.109375 -6.046875 "/></g></g></g><g fill="#060606" fill-opacity="1"><g transform="translate(59.622187, 134.64673)"><g><path d="M 5.6875 -6.03125 L 2.125 -6.03125 L 2.125 -3.96875 L 5.359375 -3.96875 L 5.359375 -2.90625 L 2.125 -2.90625 L 2.125 0 L 0.9375 0 L 0.9375 -7.09375 L 5.703125 -7.09375 Z M 5.6875 -6.03125 "/></g></g></g><g fill="#060606" fill-opacity="1"><g transform="translate(71.036973, 134.64673)"><g><path d="M 5.78125 -6.03125 L 3.53125 -6.03125 L 3.53125 0 L 2.328125 0 L 2.328125 -6.03125 L 0.09375 -6.03125 L 0.09375 -7.09375 L 5.78125 -7.09375 Z M 5.78125 -6.03125 "/></g></g></g><g fill="#060606" fill-opacity="1"><g transform="translate(82.492327, 134.64673)"><g><path d="M 8.234375 0 L 7 0 L 5.328125 -5.53125 L 3.625 0 L 2.390625 0 L 0.03125 -7.09375 L 1.3125 -7.09375 L 3.046875 -1.328125 L 4.75 -7.09375 L 5.9375 -7.09375 L 7.65625 -1.328125 L 9.375 -7.09375 L 10.609375 -7.09375 Z M 8.234375 0 "/></g></g></g><g fill="#060606" fill-opacity="1"><g transform="translate(98.583726, 134.64673)"><g><path d="M 5.515625 -1.609375 L 1.9375 -1.609375 L 1.25 0 L 0.015625 0 L 3.140625 -7.09375 L 4.375 -7.09375 L 7.46875 0 L 6.203125 0 Z M 5.0625 -2.671875 L 3.71875 -5.828125 L 2.390625 -2.671875 Z M 5.0625 -2.671875 "/></g></g></g><g fill="#060606" fill-opacity="1"><g transform="translate(111.652063, 134.64673)"><g><path d="M 5.4375 0 L 4.140625 -2.15625 C 4.066406 -2.144531 3.957031 -2.140625 3.8125 -2.140625 L 2.125 -2.140625 L 2.125 0 L 0.9375 0 L 0.9375 -7.09375 L 3.8125 -7.09375 C 4.71875 -7.09375 5.421875 -6.878906 5.921875 -6.453125 C 6.421875 -6.035156 6.671875 -5.441406 6.671875 -4.671875 C 6.671875 -4.109375 6.539062 -3.628906 6.28125 -3.234375 C 6.03125 -2.835938 5.671875 -2.550781 5.203125 -2.375 L 6.796875 0 Z M 2.125 -3.21875 L 3.8125 -3.21875 C 4.957031 -3.21875 5.53125 -3.691406 5.53125 -4.640625 C 5.53125 -5.566406 4.957031 -6.03125 3.8125 -6.03125 L 2.125 -6.03125 Z M 2.125 -3.21875 "/></g></g></g><g fill="#060606" fill-opacity="1"><g transform="translate(124.568232, 134.64673)"><g><path d="M 6 -6.03125 L 2.125 -6.03125 L 2.125 -4.109375 L 5.59375 -4.109375 L 5.59375 -3.03125 L 2.125 -3.03125 L 2.125 -1.078125 L 6.125 -1.078125 L 6.125 0 L 0.9375 0 L 0.9375 -7.09375 L 6 -7.09375 Z M 6 -6.03125 "/></g></g></g><g fill="#060606" fill-opacity="1"><g transform="translate(136.804725, 134.64673)"><g/></g></g><g fill="#060606" fill-opacity="1"><g transform="translate(145.003706, 134.64673)"><g><path d="M 6 -6.03125 L 2.125 -6.03125 L 2.125 -4.109375 L 5.59375 -4.109375 L 5.59375 -3.03125 L 2.125 -3.03125 L 2.125 -1.078125 L 6.125 -1.078125 L 6.125 0 L 0.9375 0 L 0.9375 -7.09375 L 6 -7.09375 Z M 6 -6.03125 "/></g></g></g><g fill="#060606" fill-opacity="1"><g transform="translate(157.2402, 134.64673)"><g><path d="M 7.09375 0 L 5.90625 0 L 2.125 -5.09375 L 2.125 0 L 0.9375 0 L 0.9375 -7.09375 L 2.109375 -7.09375 L 5.90625 -2 L 5.90625 -7.09375 L 7.09375 -7.09375 Z M 7.09375 0 "/></g></g></g><g fill="#060606" fill-opacity="1"><g transform="translate(170.856335, 134.64673)"><g><path d="M 5.796875 -3.484375 L 6.828125 -3.484375 L 6.828125 -0.875 C 6.460938 -0.59375 6.03125 -0.367188 5.53125 -0.203125 C 5.039062 -0.0351562 4.554688 0.046875 4.078125 0.046875 C 3.023438 0.046875 2.140625 -0.296875 1.421875 -0.984375 C 0.703125 -1.679688 0.34375 -2.535156 0.34375 -3.546875 C 0.34375 -4.566406 0.707031 -5.414062 1.4375 -6.09375 C 2.164062 -6.78125 3.066406 -7.125 4.140625 -7.125 C 4.640625 -7.125 5.128906 -7.035156 5.609375 -6.859375 C 6.097656 -6.679688 6.519531 -6.441406 6.875 -6.140625 L 6.203125 -5.25 C 5.617188 -5.789062 4.929688 -6.0625 4.140625 -6.0625 C 3.421875 -6.0625 2.8125 -5.816406 2.3125 -5.328125 C 1.8125 -4.847656 1.5625 -4.253906 1.5625 -3.546875 C 1.5625 -2.835938 1.8125 -2.238281 2.3125 -1.75 C 2.820312 -1.269531 3.4375 -1.03125 4.15625 -1.03125 C 4.707031 -1.03125 5.253906 -1.191406 5.796875 -1.515625 Z M 5.796875 -3.484375 "/></g></g></g><g fill="#060606" fill-opacity="1"><g transform="translate(184.036259, 134.64673)"><g><path d="M 2.125 0 L 0.9375 0 L 0.9375 -7.09375 L 2.125 -7.09375 Z M 2.125 0 "/></g></g></g><g fill="#060606" fill-opacity="1"><g transform="translate(192.681602, 134.64673)"><g><path d="M 7.09375 0 L 5.90625 0 L 2.125 -5.09375 L 2.125 0 L 0.9375 0 L 0.9375 -7.09375 L 2.109375 -7.09375 L 5.90625 -2 L 5.90625 -7.09375 L 7.09375 -7.09375 Z M 7.09375 0 "/></g></g></g><g fill="#060606" fill-opacity="1"><g transform="translate(206.297738, 134.64673)"><g><path d="M 6 -6.03125 L 2.125 -6.03125 L 2.125 -4.109375 L 5.59375 -4.109375 L 5.59375 -3.03125 L 2.125 -3.03125 L 2.125 -1.078125 L 6.125 -1.078125 L 6.125 0 L 0.9375 0 L 0.9375 -7.09375 L 6 -7.09375 Z M 6 -6.03125 "/></g></g></g><g fill="#060606" fill-opacity="1"><g transform="translate(218.534231, 134.64673)"><g><path d="M 6 -6.03125 L 2.125 -6.03125 L 2.125 -4.109375 L 5.59375 -4.109375 L 5.59375 -3.03125 L 2.125 -3.03125 L 2.125 -1.078125 L 6.125 -1.078125 L 6.125 0 L 0.9375 0 L 0.9375 -7.09375 L 6 -7.09375 Z M 6 -6.03125 "/></g></g></g><g fill="#060606" fill-opacity="1"><g transform="translate(230.770713, 134.64673)"><g><path d="M 5.4375 0 L 4.140625 -2.15625 C 4.066406 -2.144531 3.957031 -2.140625 3.8125 -2.140625 L 2.125 -2.140625 L 2.125 0 L 0.9375 0 L 0.9375 -7.09375 L 3.8125 -7.09375 C 4.71875 -7.09375 5.421875 -6.878906 5.921875 -6.453125 C 6.421875 -6.035156 6.671875 -5.441406 6.671875 -4.671875 C 6.671875 -4.109375 6.539062 -3.628906 6.28125 -3.234375 C 6.03125 -2.835938 5.671875 -2.550781 5.203125 -2.375 L 6.796875 0 Z M 2.125 -3.21875 L 3.8125 -3.21875 C 4.957031 -3.21875 5.53125 -3.691406 5.53125 -4.640625 C 5.53125 -5.566406 4.957031 -6.03125 3.8125 -6.03125 L 2.125 -6.03125 Z M 2.125 -3.21875 "/></g></g></g><g fill="#060606" fill-opacity="1"><g transform="translate(156.967145, 247.807729)"><g><path d="M 5.640625 -8.046875 C 7.117188 -8.046875 8.34375 -7.578125 9.3125 -6.640625 C 10.28125 -5.710938 10.765625 -4.535156 10.765625 -3.109375 C 10.765625 -2.253906 10.5625 -1.566406 10.15625 -1.046875 C 9.75 -0.523438 9.222656 -0.265625 8.578125 -0.265625 C 7.816406 -0.265625 7.375 -0.570312 7.25 -1.1875 L 7.234375 -1.421875 C 6.765625 -0.742188 6.101562 -0.40625 5.25 -0.40625 C 4.539062 -0.40625 3.921875 -0.65625 3.390625 -1.15625 C 2.867188 -1.65625 2.609375 -2.296875 2.609375 -3.078125 C 2.609375 -3.847656 2.84375 -4.492188 3.3125 -5.015625 C 3.78125 -5.546875 4.382812 -5.8125 5.125 -5.8125 C 5.570312 -5.8125 5.960938 -5.710938 6.296875 -5.515625 C 6.640625 -5.316406 6.851562 -5.128906 6.9375 -4.953125 L 6.9375 -5.703125 L 8.171875 -5.703125 L 8.171875 -1.703125 C 8.171875 -1.296875 8.347656 -1.09375 8.703125 -1.09375 C 8.992188 -1.09375 9.242188 -1.28125 9.453125 -1.65625 C 9.671875 -2.03125 9.78125 -2.503906 9.78125 -3.078125 C 9.78125 -4.242188 9.398438 -5.207031 8.640625 -5.96875 C 7.890625 -6.726562 6.890625 -7.109375 5.640625 -7.109375 C 4.453125 -7.109375 3.441406 -6.710938 2.609375 -5.921875 C 1.785156 -5.140625 1.375 -4.1875 1.375 -3.0625 C 1.375 -1.945312 1.765625 -1.023438 2.546875 -0.296875 C 3.335938 0.429688 4.320312 0.796875 5.5 0.796875 C 6.332031 0.796875 7.066406 0.570312 7.703125 0.125 L 8.171875 0.96875 C 7.847656 1.195312 7.429688 1.382812 6.921875 1.53125 C 6.410156 1.675781 5.9375 1.75 5.5 1.75 C 4.039062 1.75 2.820312 1.289062 1.84375 0.375 C 0.875 -0.539062 0.390625 -1.6875 0.390625 -3.0625 C 0.390625 -4.46875 0.894531 -5.648438 1.90625 -6.609375 C 2.914062 -7.566406 4.160156 -8.046875 5.640625 -8.046875 Z M 5.375 -4.671875 C 4.945312 -4.671875 4.601562 -4.523438 4.34375 -4.234375 C 4.082031 -3.941406 3.953125 -3.578125 3.953125 -3.140625 C 3.953125 -2.691406 4.082031 -2.304688 4.34375 -1.984375 C 4.613281 -1.671875 4.960938 -1.515625 5.390625 -1.515625 C 5.835938 -1.515625 6.191406 -1.664062 6.453125 -1.96875 C 6.722656 -2.28125 6.859375 -2.664062 6.859375 -3.125 C 6.859375 -3.570312 6.71875 -3.941406 6.4375 -4.234375 C 6.164062 -4.523438 5.8125 -4.671875 5.375 -4.671875 Z M 5.375 -4.671875 "/></g></g></g><g fill="#060606" fill-opacity="1"><g transform="translate(174.416913, 247.807729)"><g/></g></g><g fill="#060606" fill-opacity="1"><g transform="translate(183.669676, 247.807729)"><g><path d="M 2.40625 0 L 1.046875 0 L 1.046875 -8.015625 L 2.40625 -8.015625 Z M 2.40625 0 "/></g></g></g><g fill="#060606" fill-opacity="1"><g transform="translate(193.426171, 247.807729)"><g><path d="M 1.046875 -8.015625 L 4.53125 -8.015625 C 5.363281 -8.015625 6.019531 -7.835938 6.5 -7.484375 C 6.988281 -7.128906 7.234375 -6.640625 7.234375 -6.015625 C 7.234375 -5.566406 7.101562 -5.179688 6.84375 -4.859375 C 6.59375 -4.546875 6.25 -4.332031 5.8125 -4.21875 C 6.351562 -4.132812 6.773438 -3.910156 7.078125 -3.546875 C 7.378906 -3.191406 7.53125 -2.742188 7.53125 -2.203125 C 7.53125 -1.515625 7.269531 -0.972656 6.75 -0.578125 C 6.238281 -0.191406 5.523438 0 4.609375 0 L 1.046875 0 Z M 2.40625 -6.8125 L 2.40625 -4.703125 L 4.46875 -4.703125 C 4.894531 -4.703125 5.226562 -4.796875 5.46875 -4.984375 C 5.71875 -5.171875 5.84375 -5.429688 5.84375 -5.765625 C 5.84375 -6.109375 5.722656 -6.367188 5.484375 -6.546875 C 5.242188 -6.722656 4.90625 -6.8125 4.46875 -6.8125 Z M 2.40625 -3.5 L 2.40625 -1.203125 L 4.46875 -1.203125 C 5 -1.203125 5.410156 -1.300781 5.703125 -1.5 C 6.003906 -1.707031 6.15625 -2 6.15625 -2.375 C 6.15625 -2.71875 6.003906 -2.988281 5.703125 -3.1875 C 5.398438 -3.394531 4.988281 -3.5 4.46875 -3.5 Z M 2.40625 -3.5 "/></g></g></g><g fill="#060606" fill-opacity="1"><g transform="translate(207.807783, 247.807729)"><g><path d="M 9.53125 0 L 8.28125 0 L 8.265625 -5.984375 L 5.734375 -0.84375 L 4.859375 -0.84375 L 2.328125 -5.984375 L 2.328125 0 L 1.046875 0 L 1.046875 -8.015625 L 2.65625 -8.015625 L 5.296875 -2.6875 L 7.9375 -8.015625 L 9.53125 -8.015625 Z M 9.53125 0 "/></g></g></g><g fill="#060606" fill-opacity="1"><g transform="translate(224.696586, 247.807729)"><g/></g></g><g fill="#060606" fill-opacity="1"><g transform="translate(233.949353, 247.807729)"><g><path d="M 2.40625 0 L 1.046875 0 L 1.046875 -8.015625 L 2.40625 -8.015625 Z M 2.40625 0 "/></g></g></g><g fill="#060606" fill-opacity="1"><g transform="translate(243.70585, 247.807729)"><g><path d="M 8 0 L 6.671875 0 L 2.40625 -5.75 L 2.40625 0 L 1.046875 0 L 1.046875 -8.015625 L 2.375 -8.015625 L 6.671875 -2.25 L 6.671875 -8.015625 L 8 -8.015625 Z M 8 0 "/></g></g></g><g fill="#060606" fill-opacity="1"><g transform="translate(259.072018, 247.807729)"><g><path d="M 1.046875 -8.015625 L 4.34375 -8.015625 C 5.539062 -8.015625 6.53125 -7.632812 7.3125 -6.875 C 8.09375 -6.125 8.484375 -5.164062 8.484375 -4 C 8.484375 -2.84375 8.085938 -1.882812 7.296875 -1.125 C 6.515625 -0.375 5.519531 0 4.3125 0 L 1.046875 0 Z M 2.40625 -6.796875 L 2.40625 -1.21875 L 4.375 -1.21875 C 5.164062 -1.21875 5.820312 -1.476562 6.34375 -2 C 6.863281 -2.519531 7.125 -3.1875 7.125 -4 C 7.125 -4.8125 6.851562 -5.476562 6.3125 -6 C 5.78125 -6.53125 5.113281 -6.796875 4.3125 -6.796875 Z M 2.40625 -6.796875 "/></g></g></g><g fill="#060606" fill-opacity="1"><g transform="translate(274.243563, 247.807729)"><g><path d="M 7.875 -8.015625 L 7.875 -3.328125 C 7.875 -2.273438 7.5625 -1.445312 6.9375 -0.84375 C 6.320312 -0.238281 5.472656 0.0625 4.390625 0.0625 C 3.304688 0.0625 2.453125 -0.238281 1.828125 -0.84375 C 1.203125 -1.445312 0.890625 -2.273438 0.890625 -3.328125 L 0.890625 -8.015625 L 2.25 -8.015625 L 2.25 -3.328125 C 2.25 -2.648438 2.441406 -2.117188 2.828125 -1.734375 C 3.210938 -1.347656 3.734375 -1.15625 4.390625 -1.15625 C 5.054688 -1.15625 5.578125 -1.34375 5.953125 -1.71875 C 6.328125 -2.101562 6.515625 -2.640625 6.515625 -3.328125 L 6.515625 -8.015625 Z M 7.875 -8.015625 "/></g></g></g><g fill="#060606" fill-opacity="1"><g transform="translate(289.289179, 247.807729)"><g><path d="M 3.6875 -8.078125 C 4.726562 -8.078125 5.664062 -7.800781 6.5 -7.25 L 5.9375 -6.0625 C 5.113281 -6.550781 4.328125 -6.796875 3.578125 -6.796875 C 3.179688 -6.796875 2.863281 -6.722656 2.625 -6.578125 C 2.394531 -6.441406 2.28125 -6.238281 2.28125 -5.96875 C 2.28125 -5.695312 2.382812 -5.46875 2.59375 -5.28125 C 2.8125 -5.09375 3.078125 -4.953125 3.390625 -4.859375 C 3.710938 -4.773438 4.0625 -4.664062 4.4375 -4.53125 C 4.8125 -4.40625 5.160156 -4.265625 5.484375 -4.109375 C 5.804688 -3.960938 6.070312 -3.726562 6.28125 -3.40625 C 6.488281 -3.09375 6.59375 -2.710938 6.59375 -2.265625 C 6.59375 -1.566406 6.3125 -1.003906 5.75 -0.578125 C 5.1875 -0.160156 4.460938 0.046875 3.578125 0.046875 C 2.960938 0.046875 2.367188 -0.0664062 1.796875 -0.296875 C 1.222656 -0.523438 0.722656 -0.832031 0.296875 -1.21875 L 0.875 -2.390625 C 1.28125 -2.015625 1.722656 -1.722656 2.203125 -1.515625 C 2.691406 -1.316406 3.15625 -1.21875 3.59375 -1.21875 C 4.070312 -1.21875 4.441406 -1.300781 4.703125 -1.46875 C 4.960938 -1.644531 5.09375 -1.890625 5.09375 -2.203125 C 5.09375 -2.472656 4.984375 -2.703125 4.765625 -2.890625 C 4.554688 -3.078125 4.289062 -3.210938 3.96875 -3.296875 C 3.65625 -3.390625 3.3125 -3.5 2.9375 -3.625 C 2.5625 -3.75 2.210938 -3.878906 1.890625 -4.015625 C 1.566406 -4.160156 1.296875 -4.390625 1.078125 -4.703125 C 0.867188 -5.015625 0.765625 -5.394531 0.765625 -5.84375 C 0.765625 -6.519531 1.03125 -7.0625 1.5625 -7.46875 C 2.101562 -7.875 2.8125 -8.078125 3.6875 -8.078125 Z M 3.6875 -8.078125 "/></g></g></g><g fill="#060606" fill-opacity="1"><g transform="translate(302.709141, 247.807729)"><g><path d="M 6.53125 -6.796875 L 3.984375 -6.796875 L 3.984375 0 L 2.640625 0 L 2.640625 -6.796875 L 0.109375 -6.796875 L 0.109375 -8.015625 L 6.53125 -8.015625 Z M 6.53125 -6.796875 "/></g></g></g><g fill="#060606" fill-opacity="1"><g transform="translate(315.636813, 247.807729)"><g><path d="M 6.140625 0 L 4.671875 -2.421875 C 4.597656 -2.421875 4.476562 -2.421875 4.3125 -2.421875 L 2.40625 -2.421875 L 2.40625 0 L 1.046875 0 L 1.046875 -8.015625 L 4.3125 -8.015625 C 5.332031 -8.015625 6.125 -7.773438 6.6875 -7.296875 C 7.25 -6.816406 7.53125 -6.144531 7.53125 -5.28125 C 7.53125 -4.632812 7.382812 -4.085938 7.09375 -3.640625 C 6.8125 -3.203125 6.40625 -2.882812 5.875 -2.6875 L 7.671875 0 Z M 2.40625 -3.625 L 4.3125 -3.625 C 5.601562 -3.625 6.25 -4.164062 6.25 -5.25 C 6.25 -6.28125 5.601562 -6.796875 4.3125 -6.796875 L 2.40625 -6.796875 Z M 2.40625 -3.625 "/></g></g></g><g fill="#060606" fill-opacity="1"><g transform="translate(330.213051, 247.807729)"><g><path d="M 4.34375 -2.671875 L 4.34375 0 L 3 0 L 3 -2.625 L 0.015625 -8.015625 L 1.375 -8.015625 L 3.671875 -4.109375 L 5.90625 -8.015625 L 7.28125 -8.015625 Z M 4.34375 -2.671875 "/></g></g></g><g fill="#060606" fill-opacity="1"><g transform="translate(141.640023, 263.269065)"><g><path d="M 6.78125 -6.796875 L 2.40625 -6.796875 L 2.40625 -4.640625 L 6.328125 -4.640625 L 6.328125 -3.421875 L 2.40625 -3.421875 L 2.40625 -1.21875 L 6.921875 -1.21875 L 6.921875 0 L 1.046875 0 L 1.046875 -8.015625 L 6.78125 -8.015625 Z M 6.78125 -6.796875 "/></g></g></g><g fill="#060606" fill-opacity="1"><g transform="translate(155.449225, 263.269065)"><g><path d="M 8 0 L 6.671875 0 L 2.40625 -5.75 L 2.40625 0 L 1.046875 0 L 1.046875 -8.015625 L 2.375 -8.015625 L 6.671875 -2.25 L 6.671875 -8.015625 L 8 -8.015625 Z M 8 0 "/></g></g></g><g fill="#060606" fill-opacity="1"><g transform="translate(170.815389, 263.269065)"><g><path d="M 6.546875 -3.9375 L 7.71875 -3.9375 L 7.71875 -0.984375 C 7.300781 -0.671875 6.8125 -0.414062 6.25 -0.21875 C 5.695312 -0.03125 5.148438 0.0625 4.609375 0.0625 C 3.421875 0.0625 2.421875 -0.328125 1.609375 -1.109375 C 0.796875 -1.898438 0.390625 -2.867188 0.390625 -4.015625 C 0.390625 -5.160156 0.800781 -6.117188 1.625 -6.890625 C 2.445312 -7.660156 3.46875 -8.046875 4.6875 -8.046875 C 5.25 -8.046875 5.800781 -7.941406 6.34375 -7.734375 C 6.894531 -7.535156 7.367188 -7.265625 7.765625 -6.921875 L 7 -5.9375 C 6.34375 -6.539062 5.570312 -6.84375 4.6875 -6.84375 C 3.863281 -6.84375 3.171875 -6.566406 2.609375 -6.015625 C 2.046875 -5.472656 1.765625 -4.804688 1.765625 -4.015625 C 1.765625 -3.210938 2.046875 -2.535156 2.609375 -1.984375 C 3.179688 -1.429688 3.878906 -1.15625 4.703125 -1.15625 C 5.316406 -1.15625 5.929688 -1.335938 6.546875 -1.703125 Z M 6.546875 -3.9375 "/></g></g></g><g fill="#060606" fill-opacity="1"><g transform="translate(185.689277, 263.269065)"><g><path d="M 2.40625 0 L 1.046875 0 L 1.046875 -8.015625 L 2.40625 -8.015625 Z M 2.40625 0 "/></g></g></g><g fill="#060606" fill-opacity="1"><g transform="translate(195.445771, 263.269065)"><g><path d="M 8 0 L 6.671875 0 L 2.40625 -5.75 L 2.40625 0 L 1.046875 0 L 1.046875 -8.015625 L 2.375 -8.015625 L 6.671875 -2.25 L 6.671875 -8.015625 L 8 -8.015625 Z M 8 0 "/></g></g></g><g fill="#060606" fill-opacity="1"><g transform="translate(210.811939, 263.269065)"><g><path d="M 6.78125 -6.796875 L 2.40625 -6.796875 L 2.40625 -4.640625 L 6.328125 -4.640625 L 6.328125 -3.421875 L 2.40625 -3.421875 L 2.40625 -1.21875 L 6.921875 -1.21875 L 6.921875 0 L 1.046875 0 L 1.046875 -8.015625 L 6.78125 -8.015625 Z M 6.78125 -6.796875 "/></g></g></g><g fill="#060606" fill-opacity="1"><g transform="translate(224.621144, 263.269065)"><g><path d="M 6.78125 -6.796875 L 2.40625 -6.796875 L 2.40625 -4.640625 L 6.328125 -4.640625 L 6.328125 -3.421875 L 2.40625 -3.421875 L 2.40625 -1.21875 L 6.921875 -1.21875 L 6.921875 0 L 1.046875 0 L 1.046875 -8.015625 L 6.78125 -8.015625 Z M 6.78125 -6.796875 "/></g></g></g><g fill="#060606" fill-opacity="1"><g transform="translate(238.430349, 263.269065)"><g><path d="M 6.140625 0 L 4.671875 -2.421875 C 4.597656 -2.421875 4.476562 -2.421875 4.3125 -2.421875 L 2.40625 -2.421875 L 2.40625 0 L 1.046875 0 L 1.046875 -8.015625 L 4.3125 -8.015625 C 5.332031 -8.015625 6.125 -7.773438 6.6875 -7.296875 C 7.25 -6.816406 7.53125 -6.144531 7.53125 -5.28125 C 7.53125 -4.632812 7.382812 -4.085938 7.09375 -3.640625 C 6.8125 -3.203125 6.40625 -2.882812 5.875 -2.6875 L 7.671875 0 Z M 2.40625 -3.625 L 4.3125 -3.625 C 5.601562 -3.625 6.25 -4.164062 6.25 -5.25 C 6.25 -6.28125 5.601562 -6.796875 4.3125 -6.796875 L 2.40625 -6.796875 Z M 2.40625 -3.625 "/></g></g></g><g fill="#060606" fill-opacity="1"><g transform="translate(253.006587, 263.269065)"><g><path d="M 2.40625 0 L 1.046875 0 L 1.046875 -8.015625 L 2.40625 -8.015625 Z M 2.40625 0 "/></g></g></g><g fill="#060606" fill-opacity="1"><g transform="translate(262.763084, 263.269065)"><g><path d="M 8 0 L 6.671875 0 L 2.40625 -5.75 L 2.40625 0 L 1.046875 0 L 1.046875 -8.015625 L 2.375 -8.015625 L 6.671875 -2.25 L 6.671875 -8.015625 L 8 -8.015625 Z M 8 0 "/></g></g></g><g fill="#060606" fill-opacity="1"><g transform="translate(278.129252, 263.269065)"><g><path d="M 6.546875 -3.9375 L 7.71875 -3.9375 L 7.71875 -0.984375 C 7.300781 -0.671875 6.8125 -0.414062 6.25 -0.21875 C 5.695312 -0.03125 5.148438 0.0625 4.609375 0.0625 C 3.421875 0.0625 2.421875 -0.328125 1.609375 -1.109375 C 0.796875 -1.898438 0.390625 -2.867188 0.390625 -4.015625 C 0.390625 -5.160156 0.800781 -6.117188 1.625 -6.890625 C 2.445312 -7.660156 3.46875 -8.046875 4.6875 -8.046875 C 5.25 -8.046875 5.800781 -7.941406 6.34375 -7.734375 C 6.894531 -7.535156 7.367188 -7.265625 7.765625 -6.921875 L 7 -5.9375 C 6.34375 -6.539062 5.570312 -6.84375 4.6875 -6.84375 C 3.863281 -6.84375 3.171875 -6.566406 2.609375 -6.015625 C 2.046875 -5.472656 1.765625 -4.804688 1.765625 -4.015625 C 1.765625 -3.210938 2.046875 -2.535156 2.609375 -1.984375 C 3.179688 -1.429688 3.878906 -1.15625 4.703125 -1.15625 C 5.316406 -1.15625 5.929688 -1.335938 6.546875 -1.703125 Z M 6.546875 -3.9375 "/></g></g></g><g fill="#060606" fill-opacity="1"><g transform="translate(293.003144, 263.269065)"><g/></g></g><g fill="#060606" fill-opacity="1"><g transform="translate(302.25591, 263.269065)"><g><path d="M 2.40625 -1.21875 L 5.875 -1.21875 L 5.875 0 L 1.046875 0 L 1.046875 -8.015625 L 2.40625 -8.015625 Z M 2.40625 -1.21875 "/></g></g></g><g fill="#060606" fill-opacity="1"><g transform="translate(314.668409, 263.269065)"><g><path d="M 6.234375 -1.8125 L 2.1875 -1.8125 L 1.421875 0 L 0.015625 0 L 3.546875 -8.015625 L 4.9375 -8.015625 L 8.4375 0 L 7 0 Z M 5.71875 -3.015625 L 4.203125 -6.578125 L 2.6875 -3.015625 Z M 5.71875 -3.015625 "/></g></g></g><g fill="#060606" fill-opacity="1"><g transform="translate(329.416371, 263.269065)"><g><path d="M 1.046875 -8.015625 L 4.53125 -8.015625 C 5.363281 -8.015625 6.019531 -7.835938 6.5 -7.484375 C 6.988281 -7.128906 7.234375 -6.640625 7.234375 -6.015625 C 7.234375 -5.566406 7.101562 -5.179688 6.84375 -4.859375 C 6.59375 -4.546875 6.25 -4.332031 5.8125 -4.21875 C 6.351562 -4.132812 6.773438 -3.910156 7.078125 -3.546875 C 7.378906 -3.191406 7.53125 -2.742188 7.53125 -2.203125 C 7.53125 -1.515625 7.269531 -0.972656 6.75 -0.578125 C 6.238281 -0.191406 5.523438 0 4.609375 0 L 1.046875 0 Z M 2.40625 -6.8125 L 2.40625 -4.703125 L 4.46875 -4.703125 C 4.894531 -4.703125 5.226562 -4.796875 5.46875 -4.984375 C 5.71875 -5.171875 5.84375 -5.429688 5.84375 -5.765625 C 5.84375 -6.109375 5.722656 -6.367188 5.484375 -6.546875 C 5.242188 -6.722656 4.90625 -6.8125 4.46875 -6.8125 Z M 2.40625 -3.5 L 2.40625 -1.203125 L 4.46875 -1.203125 C 5 -1.203125 5.410156 -1.300781 5.703125 -1.5 C 6.003906 -1.707031 6.15625 -2 6.15625 -2.375 C 6.15625 -2.71875 6.003906 -2.988281 5.703125 -3.1875 C 5.398438 -3.394531 4.988281 -3.5 4.46875 -3.5 Z M 2.40625 -3.5 "/></g></g></g><path stroke-linecap="butt" transform="matrix(0.752236, 0.00342931, -0.00341908, 0.749992, 258.971589, 130.466051)" fill="none" stroke-linejoin="miter" d="M -0.00150885 0.498403 L 109.676711 0.502117 " stroke="#060606" stroke-width="1" stroke-opacity="1" stroke-miterlimit="4"/><path stroke-linecap="butt" transform="matrix(0.747233, 0.00338379, -0.00339629, 0.749992, 33.933569, 243.512914)" fill="none" stroke-linejoin="miter" d="M 0.00229823 0.498401 L 110.414915 0.50025 " stroke="#060606" stroke-width="1" stroke-opacity="1" stroke-miterlimit="4"/></svg>