<svg xmlns="http://www.w3.org/2000/svg" xmlns:xlink="http://www.w3.org/1999/xlink" width="500" zoomAndPan="magnify" viewBox="0 0 375 374.999991" height="500" preserveAspectRatio="xMidYMid meet" version="1.0"><defs><g/><clipPath id="030678a39f"><path d="M 111.75 89.238281 L 263.25 89.238281 L 263.25 240.738281 L 111.75 240.738281 Z M 111.75 89.238281 " clip-rule="nonzero"/></clipPath><clipPath id="14376fb728"><path d="M 187.5 89.238281 C 145.664062 89.238281 111.75 123.152344 111.75 164.988281 C 111.75 206.824219 145.664062 240.738281 187.5 240.738281 C 229.335938 240.738281 263.25 206.824219 263.25 164.988281 C 263.25 123.152344 229.335938 89.238281 187.5 89.238281 " clip-rule="nonzero"/></clipPath></defs><g clip-path="url(#030678a39f)"><g clip-path="url(#14376fb728)"><path fill="#3d3d3d" d="M 111.75 89.238281 L 263.25 89.238281 L 263.25 240.738281 L 111.75 240.738281 Z M 111.75 89.238281 " fill-opacity="1" fill-rule="nonzero"/></g></g><g fill="#ffffff" fill-opacity="1"><g transform="translate(176.682321, 177.926809)"><g><path d="M 4.296875 -20.546875 C 4.453125 -17.222656 5.320312 -14.207031 6.90625 -11.5 C 8.5 -8.789062 10.664062 -6.484375 13.40625 -4.578125 C 16.15625 -2.679688 19.390625 -1.210938 23.109375 -0.171875 C 26.828125 0.867188 30.890625 1.390625 35.296875 1.390625 C 39.785156 1.390625 43.832031 0.847656 47.4375 -0.234375 C 51.039062 -1.316406 54.117188 -2.863281 56.671875 -4.875 C 59.222656 -6.882812 61.195312 -9.320312 62.59375 -12.1875 C 63.988281 -15.050781 64.6875 -18.226562 64.6875 -21.71875 C 64.6875 -26.519531 63.484375 -30.445312 61.078125 -33.5 C 58.679688 -36.5625 55.679688 -39.117188 52.078125 -41.171875 C 48.484375 -43.222656 44.578125 -44.941406 40.359375 -46.328125 C 36.140625 -47.722656 32.226562 -49.191406 28.625 -50.734375 C 25.019531 -52.285156 22.019531 -54.066406 19.625 -56.078125 C 17.226562 -58.097656 16.03125 -60.769531 16.03125 -64.09375 C 16.03125 -65.957031 16.4375 -67.703125 17.25 -69.328125 C 18.0625 -70.953125 19.257812 -72.363281 20.84375 -73.5625 C 22.425781 -74.757812 24.378906 -75.726562 26.703125 -76.46875 C 29.023438 -77.207031 31.695312 -77.578125 34.71875 -77.578125 C 39.75 -77.578125 44.023438 -76.507812 47.546875 -74.375 C 51.078125 -72.25 53.148438 -68.898438 53.765625 -64.328125 L 61.65625 -64.328125 C 61.195312 -67.191406 60.15625 -69.765625 58.53125 -72.046875 C 56.90625 -74.335938 54.851562 -76.273438 52.375 -77.859375 C 49.894531 -79.453125 47.085938 -80.65625 43.953125 -81.46875 C 40.816406 -82.28125 37.546875 -82.6875 34.140625 -82.6875 C 30.578125 -82.6875 27.1875 -82.21875 23.96875 -81.28125 C 20.757812 -80.351562 17.9375 -79 15.5 -77.21875 C 13.0625 -75.4375 11.125 -73.191406 9.6875 -70.484375 C 8.257812 -67.773438 7.546875 -64.679688 7.546875 -61.203125 C 7.546875 -56.628906 8.707031 -52.945312 11.03125 -50.15625 C 13.351562 -47.375 16.273438 -45.050781 19.796875 -43.1875 C 23.316406 -41.332031 27.128906 -39.75 31.234375 -38.4375 C 35.335938 -37.125 39.148438 -35.632812 42.671875 -33.96875 C 46.191406 -32.300781 49.113281 -30.265625 51.4375 -27.859375 C 53.757812 -25.460938 54.921875 -22.253906 54.921875 -18.234375 C 54.921875 -13.203125 53.082031 -9.523438 49.40625 -7.203125 C 45.726562 -4.878906 40.832031 -3.71875 34.71875 -3.71875 C 29.84375 -3.71875 25.929688 -4.351562 22.984375 -5.625 C 20.046875 -6.90625 17.800781 -8.4375 16.25 -10.21875 C 14.707031 -12 13.664062 -13.835938 13.125 -15.734375 C 12.582031 -17.628906 12.269531 -19.234375 12.1875 -20.546875 Z M 4.296875 -20.546875 "/></g></g></g><g fill="#ffffff" fill-opacity="1"><g transform="translate(121.296639, 221.228674)"><g><path d="M 14.40625 0 L 44.5625 0 C 49.925781 0 54.445312 -0.695312 58.125 -2.09375 C 61.8125 -3.5 64.773438 -5.320312 67.015625 -7.5625 C 69.265625 -9.8125 70.890625 -12.351562 71.890625 -15.1875 C 72.890625 -18.03125 73.390625 -20.894531 73.390625 -23.78125 C 73.390625 -28.34375 72.40625 -31.984375 70.4375 -34.703125 C 68.476562 -37.429688 66.132812 -39.515625 63.40625 -40.953125 C 60.6875 -42.398438 57.882812 -43.363281 55 -43.84375 C 52.125 -44.320312 49.804688 -44.601562 48.046875 -44.6875 L 48.046875 -45.15625 C 50.847656 -45.15625 53.488281 -45.695312 55.96875 -46.78125 C 58.445312 -47.863281 60.628906 -49.265625 62.515625 -50.984375 C 64.398438 -52.703125 65.898438 -54.703125 67.015625 -56.984375 C 68.140625 -59.273438 68.703125 -61.703125 68.703125 -64.265625 C 68.703125 -66.503906 68.21875 -68.785156 67.25 -71.109375 C 66.289062 -73.429688 64.832031 -75.550781 62.875 -77.46875 C 60.914062 -79.394531 58.394531 -80.976562 55.3125 -82.21875 C 52.226562 -83.457031 48.601562 -84.078125 44.4375 -84.078125 L 14.40625 -84.078125 Z M 25.34375 -5.28125 L 25.34375 -42.03125 L 38.5625 -42.03125 C 42.476562 -42.03125 45.878906 -41.507812 48.765625 -40.46875 C 51.648438 -39.4375 54.03125 -38.035156 55.90625 -36.265625 C 57.789062 -34.503906 59.191406 -32.460938 60.109375 -30.140625 C 61.035156 -27.828125 61.5 -25.390625 61.5 -22.828125 C 61.5 -20.015625 61 -17.523438 60 -15.359375 C 59 -13.203125 57.65625 -11.363281 55.96875 -9.84375 C 54.289062 -8.320312 52.3125 -7.179688 50.03125 -6.421875 C 47.75 -5.660156 45.328125 -5.28125 42.765625 -5.28125 Z M 25.34375 -47.328125 L 25.34375 -78.796875 L 40 -78.796875 C 43.125 -78.796875 45.785156 -78.351562 47.984375 -77.46875 C 50.179688 -76.59375 51.976562 -75.429688 53.375 -73.984375 C 54.78125 -72.546875 55.800781 -70.90625 56.4375 -69.0625 C 57.082031 -67.21875 57.40625 -65.375 57.40625 -63.53125 C 57.40625 -61.207031 56.945312 -59.046875 56.03125 -57.046875 C 55.113281 -55.046875 53.832031 -53.320312 52.1875 -51.875 C 50.539062 -50.4375 48.65625 -49.316406 46.53125 -48.515625 C 44.414062 -47.722656 42.15625 -47.328125 39.75 -47.328125 Z M 25.34375 -47.328125 "/></g></g></g></svg>