<?xml version="1.0" standalone="no"?>
<!DOCTYPE svg PUBLIC "-//W3C//DTD SVG 20010904//EN"
 "http://www.w3.org/TR/2001/REC-SVG-20010904/DTD/svg10.dtd">
<svg version="1.0" xmlns="http://www.w3.org/2000/svg"
 width="840.000000pt" height="443.000000pt" viewBox="0 0 840.000000 443.000000"
 preserveAspectRatio="xMidYMid meet">

<g transform="translate(0.000000,443.000000) scale(0.100000,-0.100000)"
fill="#000000" stroke="none">
<path d="M4037 4005 c-281 -35 -508 -112 -626 -211 l-31 -26 -55 21 c-180 68
-360 -42 -372 -227 -7 -104 23 -150 151 -227 15 -9 15 -16 1 -85 -8 -41 -18
-142 -21 -225 -6 -136 -10 -159 -43 -255 -32 -95 -35 -116 -36 -215 0 -129 24
-240 62 -286 17 -20 20 -29 11 -29 -8 0 -38 -7 -67 -16 -88 -26 -162 -111
-130 -150 6 -8 19 -29 28 -47 23 -46 71 -48 148 -8 31 17 59 29 60 27 2 -2 -4
-100 -13 -217 -23 -307 -16 -588 20 -723 34 -131 91 -247 159 -322 l56 -61
-63 -47 c-92 -69 -124 -137 -93 -193 16 -29 86 -83 106 -83 21 0 103 52 171
107 79 65 103 68 223 28 165 -54 274 -69 497 -69 261 1 439 34 618 115 75 34
78 33 160 -61 88 -100 135 -110 206 -46 61 56 45 128 -51 224 l-53 53 51 66
c129 168 198 401 214 726 l7 137 51 0 c39 0 60 -6 90 -27 38 -26 40 -27 53 -8
19 26 17 82 -6 132 -26 58 -105 140 -162 169 -45 23 -48 27 -48 64 l0 39 46
-24 c79 -42 113 -34 149 36 18 37 22 55 16 72 -21 53 -98 103 -174 113 l-44 6
23 58 c55 136 53 294 -6 472 -20 60 -32 123 -40 209 -12 137 -26 237 -45 322
l-13 57 36 19 c48 25 97 77 116 123 46 109 -11 251 -125 313 -70 39 -157 41
-235 6 l-52 -23 -48 35 c-68 48 -135 80 -230 110 -166 52 -457 76 -647 52z
m433 -30 c414 -56 634 -242 729 -615 59 -234 80 -533 42 -616 -88 -194 -373
-300 -866 -324 -316 -15 -658 13 -865 70 -177 49 -326 148 -381 251 -22 42
-24 54 -23 219 3 523 185 820 583 950 83 27 253 62 351 73 89 10 335 5 430 -8z
m755 -163 c103 -50 167 -181 135 -277 -19 -58 -97 -135 -138 -135 -5 0 -19 34
-32 76 -19 61 -22 79 -12 95 18 29 14 73 -9 103 -15 20 -29 26 -58 26 -30 0
-44 8 -80 44 l-43 44 25 16 c52 35 151 38 212 8z m-1922 -38 c26 -9 47 -18 47
-21 0 -2 -23 -31 -52 -63 -45 -52 -54 -57 -75 -49 -42 16 -73 10 -98 -17 -36
-39 -34 -88 6 -125 l32 -29 -18 -55 c-9 -30 -22 -55 -29 -55 -22 0 -92 52
-115 86 -52 76 -33 191 45 268 71 71 162 92 257 60z m-259 -1218 c55 -188 332
-369 645 -421 121 -21 223 -16 301 14 30 11 99 58 168 113 139 112 164 128
194 128 19 -1 16 -5 -17 -22 -41 -21 -71 -44 -208 -155 -105 -85 -164 -106
-297 -107 -158 -1 -321 39 -475 117 -183 92 -335 255 -335 360 0 41 7 33 24
-27z m2296 -86 c0 -24 -33 -56 -68 -65 -15 -3 -153 -10 -307 -14 -336 -10
-365 -17 -496 -112 -105 -76 -162 -105 -241 -124 -72 -17 -98 -19 -98 -7 0 5
31 14 68 21 88 16 147 44 250 119 46 34 89 63 95 65 17 6 4 17 -40 32 -35 13
-36 14 -10 15 15 0 41 -7 58 -15 26 -14 34 -14 82 1 40 12 118 18 332 23 299
8 346 16 360 60 8 26 15 27 15 1z m-483 -124 c55 -26 217 -172 207 -188 -3 -5
-44 28 -90 72 -122 117 -191 142 -273 101 -48 -25 -80 -62 -171 -195 -81 -120
-144 -181 -203 -197 -72 -19 -325 18 -507 74 -115 36 -404 139 -415 149 -23
20 37 4 207 -58 229 -82 376 -120 540 -141 153 -19 187 -13 253 48 24 22 80
94 126 160 133 194 203 232 326 175z m534 -131 c54 -19 109 -71 109 -102 0
-25 -19 -30 -38 -11 -6 6 -15 8 -19 4 -5 -4 2 -16 15 -26 27 -22 20 -48 -14
-56 -16 -4 -43 3 -78 20 -52 26 -53 27 -60 79 -11 94 -9 107 18 107 13 0 43
-7 67 -15z m-2273 -67 l-3 -73 -60 -32 c-67 -36 -106 -41 -126 -17 -11 14 -10
19 9 34 30 25 28 33 -8 25 -27 -6 -30 -4 -30 17 0 49 111 117 193 118 l28 0
-3 -72z m2169 -154 c-2 -3 -46 15 -98 39 l-93 43 57 32 c31 17 71 47 89 66
l33 35 8 -106 c5 -58 6 -107 4 -109z m-1865 43 c53 -20 125 -44 160 -53 35
-10 66 -20 70 -24 5 -3 -7 -42 -26 -85 -89 -212 -132 -396 -123 -520 5 -76 37
-180 63 -205 14 -13 17 -13 29 3 7 10 19 41 25 68 10 41 20 55 56 81 43 31 60
52 129 163 48 77 77 108 146 156 63 43 101 96 143 204 l27 70 112 2 c62 1 156
7 211 14 l98 12 112 -112 c127 -127 180 -166 249 -181 72 -15 120 -12 252 15
66 13 126 25 134 25 12 0 13 -26 8 -157 -16 -405 -135 -676 -367 -833 -306
-208 -844 -257 -1262 -116 -140 48 -239 107 -333 201 -200 199 -254 461 -211
1030 8 105 18 236 21 292 l7 101 87 -57 c48 -31 130 -73 183 -94z m1252 23
c39 -14 87 -62 117 -115 28 -49 33 -53 77 -60 126 -19 252 -78 352 -164 54
-47 15 -37 -48 13 -75 58 -147 93 -240 117 -106 27 -106 27 -81 -23 38 -74 71
-118 112 -148 33 -24 37 -30 20 -30 -34 0 -113 98 -168 206 -27 55 -63 114
-80 133 -32 36 -96 70 -132 71 -13 0 -23 5 -23 11 0 12 51 6 94 -11z m-846
-181 c-6 -22 -50 -118 -98 -213 -92 -182 -114 -254 -103 -333 4 -30 3 -44 -4
-40 -18 11 -22 85 -8 151 8 38 44 124 93 222 43 87 87 183 96 212 20 61 39 62
24 1z m1273 -1199 c72 -72 95 -134 65 -175 -13 -18 -15 -16 -36 28 -22 46 -37
64 -46 54 -2 -2 7 -28 22 -57 29 -59 24 -73 -27 -73 -27 0 -44 12 -111 83 -59
64 -75 86 -64 92 8 4 41 28 73 53 32 24 62 44 66 45 4 0 30 -23 58 -50z
m-1593 -74 l34 -17 -49 -31 c-26 -17 -65 -45 -85 -64 -71 -63 -137 -81 -161
-42 -8 12 -5 26 16 57 28 42 34 61 18 61 -5 0 -23 -24 -40 -52 l-30 -53 -11
30 c-6 16 -9 39 -5 52 7 30 59 89 114 128 l44 32 61 -42 c34 -23 76 -50 94
-59z"/>
<path d="M4502 3815 c-112 -25 -206 -97 -253 -193 -33 -67 -34 -198 -1 -260
61 -114 154 -173 289 -180 208 -11 368 109 381 287 16 236 -180 399 -416 346z
m210 -35 c65 -24 128 -86 160 -155 18 -39 23 -68 23 -130 0 -70 -4 -87 -29
-133 -34 -60 -80 -101 -152 -134 -70 -31 -229 -32 -295 -2 -212 99 -239 367
-49 506 92 68 236 88 342 48z"/>
<path d="M4685 3601 c-103 -44 -71 -211 40 -211 35 0 83 45 91 86 7 38 -8 83
-35 108 -22 20 -70 28 -96 17z m103 -124 c4 -20 -25 -34 -40 -19 -15 15 -1 44
19 40 10 -2 19 -11 21 -21z"/>
<path d="M3630 3775 c-103 -29 -173 -85 -222 -178 -19 -35 -23 -58 -23 -132 0
-78 4 -97 28 -147 33 -67 80 -111 157 -147 47 -22 69 -26 145 -25 114 0 184
26 259 95 72 66 100 129 100 229 -1 130 -58 226 -169 281 -78 38 -188 48 -275
24z m267 -45 c105 -52 159 -146 156 -275 -1 -75 -20 -121 -74 -180 -110 -119
-294 -146 -437 -65 -194 112 -184 411 18 515 104 54 234 55 337 5z"/>
<path d="M3799 3551 c-24 -24 -29 -38 -29 -76 0 -40 5 -52 34 -81 19 -19 44
-34 55 -34 33 0 75 25 88 52 20 41 22 56 12 92 -21 76 -106 101 -160 47z m134
-95 c7 -17 -18 -40 -33 -31 -5 3 -10 15 -10 26 0 23 35 27 43 5z"/>
<path d="M4125 3273 c-33 -8 -84 -52 -91 -79 -4 -13 -19 -31 -34 -39 -98 -51
-116 -167 -34 -220 27 -17 32 -28 37 -72 7 -66 33 -122 65 -136 20 -9 31 -7
64 11 l40 21 28 -21 c22 -16 37 -19 61 -14 58 11 69 30 69 117 l0 77 34 0 c58
0 106 47 106 104 0 35 -38 85 -90 118 -35 23 -50 39 -50 54 0 26 -33 60 -73
75 -28 11 -95 13 -132 4z m265 -165 c31 -24 60 -68 60 -90 0 -9 -12 -30 -26
-47 -31 -37 -61 -40 -135 -11 -67 27 -119 27 -203 1 -85 -26 -89 -26 -121 2
-47 40 -32 122 31 163 24 16 27 16 67 -6 58 -33 146 -33 213 1 52 26 65 25
114 -13z m-230 -233 c0 -74 -3 -87 -22 -105 -28 -26 -60 -26 -84 1 -15 16 -19
36 -19 87 l0 65 50 18 c77 27 75 29 75 -66z m114 70 l37 -16 -3 -82 c-3 -78
-4 -82 -31 -95 -65 -31 -101 24 -91 138 6 64 9 70 29 70 13 0 39 -7 59 -15z"/>
</g>
</svg>
